<?xml version="1.0" encoding="utf-8"?>
<!-- Generator: Adobe Illustrator 19.0.0, SVG Export Plug-In . SVG Version: 6.00 Build 0)  -->
<svg version="1.1" id="Layer_1" xmlns="http://www.w3.org/2000/svg" xmlns:xlink="http://www.w3.org/1999/xlink" x="0px" y="0px"
	 width="1000px" height="1000px" viewBox="0 0 1000 1000" enable-background="new 0 0 1000 1000" xml:space="preserve">
<pattern  width="8" height="8" patternUnits="userSpaceOnUse" id="New_Pattern" viewBox="0 -8 8 8" overflow="visible">
	<g id="XMLID_7054_">
		<polygon id="XMLID_7067_" fill="none" points="0,-8 8,-8 8,0 0,0 		"/>
		<polygon id="XMLID_7066_" fill="#FFFFFF" points="7,-6 7,-5 6,-5 6,-4 5,-4 5,-3 4,-3 4,-2 3,-2 3,-1 2,-1 2,0 7,0 7,-1 8,-1 
			8,-2 8,-3 8,-4 8,-5 8,-6 		"/>
		<g id="XMLID_7057_">
			<polygon id="XMLID_7065_" points="0,0 1,0 1,-1 0,-1 			"/>
			<polygon id="XMLID_7064_" points="1,-1 2,-1 2,-2 1,-2 			"/>
			<polygon id="XMLID_7063_" points="2,-2 3,-2 3,-3 2,-3 			"/>
			<polygon id="XMLID_7062_" points="3,-3 4,-3 4,-4 3,-4 			"/>
			<polygon id="XMLID_7061_" points="4,-4 5,-4 5,-5 4,-5 			"/>
			<polygon id="XMLID_7060_" points="5,-5 6,-5 6,-6 5,-6 			"/>
			<polygon id="XMLID_7059_" points="6,-6 7,-6 7,-7 6,-7 			"/>
			<polygon id="XMLID_7058_" points="7,-8 7,-7 8,-7 8,-8 			"/>
		</g>
		<polygon id="XMLID_7055_" fill="#FFFFFF" points="1,-2 1,-3 2,-3 2,-4 3,-4 3,-5 4,-5 4,-6 5,-6 5,-7 6,-7 6,-8 1,-8 1,-7 0,-7 
			0,-6 0,-5 0,-4 0,-3 0,-2 		"/>
	</g>
</pattern>
<rect id="XMLID_17_" x="-6" y="-34.894" display="none" fill="#57C2B0" stroke="#0000FF" stroke-miterlimit="10" width="1108.559" height="1187.941"/>
<g id="XMLID_1_">
	<g id="XMLID_4_">
		<path id="XMLID_5_" fill="#FFFFFF" d="M38.694,14h-2.388C35.585,14,35,14.585,35,15.306v2.388C35,18.415,35.585,19,36.306,19
			h2.388C39.415,19,40,18.415,40,17.694v-2.388C40,14.585,39.415,14,38.694,14z"/>
		<path id="XMLID_7_" fill="#FFFFFF" d="M26.863,22.361c-0.948,0-1.823,0.278-2.577,0.735c0.235-0.073,0.479-0.121,0.737-0.121
			c1.395,0,2.524,1.13,2.524,2.526c0,1.392-1.13,2.524-2.524,2.524s-2.524-1.131-2.524-2.524c0-0.26,0.051-0.504,0.123-0.738
			c-0.46,0.753-0.737,1.628-0.737,2.577c0,2.752,2.227,4.979,4.979,4.979c2.749,0,4.979-2.227,4.979-4.979
			S29.612,22.361,26.863,22.361z"/>
		<polygon id="XMLID_8_" fill="#FFFFFF" points="19.066,26.568 19.066,26.569 19.066,26.568 		"/>
		<path id="XMLID_55_" fill="#FFFFFF" d="M37.634,10H16.366C12.85,10,10,12.85,10,16.366v21.267C10,41.15,12.85,44,16.366,44h21.267
			C41.15,44,44,41.15,44,37.634V16.366C44,12.85,41.15,10,37.634,10z M29.54,34.647c-5.336,1.941-11.058-2.469-10.507-8.107
			C19.028,26.592,19,26.748,19,26.568c0-0.005,0-0.004,0-0.007c0,0.002,0,0.005,0,0.007C19,24.924,19.899,23,21.001,22h0.017
			c3.075-3,8.59-3,11.665,0h0.004C36.325,26,34.669,32.782,29.54,34.647z M41,22h-5.104c-1.887-3.128-5.356-5.224-9.034-5.224
			c-3.678,0-7.147,2.096-9.034,5.224H12v-5.272C12,14.658,14.182,13,16.252,13h21.221C39.545,13,41,14.658,41,16.728V22z"/>
	</g>
	<path id="XMLID_19_" fill="#FFFFFF" d="M103.805,17.146c0-3.718-3.014-6.731-6.731-6.731H76.59c-3.718,0-6.731,3.014-6.731,6.731
		V37.63c0,3.718,3.014,6.731,6.731,6.731h20.485c3.718,0,6.731-3.014,6.731-6.731V17.146z M96.388,29.497
		c0.869,0.787,1.718,1.601,2.45,2.517c0.271,0.339,0.523,0.691,0.723,1.079c0.343,0.666,0.032,1.398-0.564,1.438l-3.71-0.002
		c-0.957,0.079-1.72-0.306-2.362-0.96c-0.514-0.523-0.989-1.08-1.483-1.621c-0.024-0.026-0.047-0.051-0.071-0.077
		c-0.917-0.973-1.864-0.695-2.125,0.616c-0.059,0.294-0.083,0.595-0.098,0.898c-0.03,0.62-0.527,1.111-1.147,1.142
		c-1.888,0.094-3.68-0.188-5.343-1.14c-1.458-0.834-2.588-2.011-3.572-3.344c-1.915-2.595-3.382-5.447-4.701-8.379
		c-0.247-0.548,0.049-1.017,0.65-1.028c1.184-0.023,2.368-0.022,3.554-0.003c0.481,0.008,0.903,0.311,1.085,0.756
		c0.655,1.61,1.456,3.141,2.461,4.56c0.076,0.107,0.152,0.214,0.232,0.319c0.877,1.157,1.738,0.926,1.871-0.52
		c0-0.005,0.001-0.011,0.001-0.016c0.093-1.088,0.108-2.175-0.046-3.259c-0.095-0.668-0.591-1.231-1.248-1.382
		c-0.306-0.07-0.25-0.208-0.086-0.402c0.298-0.349,0.579-0.576,1.138-0.576h4.193c0.65,0,0.802,0.424,0.893,1.071
		c0.003,0.019,0.004,0.039,0.004,0.058l0.004,4.633c-0.007,0.257,0.128,1.022,0.592,1.193c0.371,0.121,0.615-0.174,0.837-0.409
		c1.004-1.065,1.72-2.324,2.36-3.628c0.284-0.573,0.528-1.168,0.765-1.763c0.175-0.441,0.451-0.658,0.948-0.649l4.035,0.004
		c0.12,0,0.241,0.002,0.357,0.022c0.68,0.116,0.866,0.408,0.656,1.072c-0.331,1.042-0.975,1.91-1.604,2.782
		c-0.673,0.931-1.393,1.83-2.06,2.767C95.31,28.197,95.425,28.625,96.388,29.497z"/>
</g>
<g id="XMLID_3_">
	<g id="XMLID_66_">
		<g id="XMLID_67_">
			<path id="XMLID_58_" fill="#FFFFFF" d="M149.416,30.46c-0.281,0-0.509,0.228-0.509,0.509v1.945c0,1.123-0.914,2.037-2.037,2.037
				h-13.89c-1.123,0-2.037-0.914-2.037-2.037v-1.945c0-0.281-0.228-0.509-0.509-0.509s-0.509,0.228-0.509,0.509v1.945
				c0,1.684,1.37,3.055,3.055,3.055h13.89c1.684,0,3.055-1.37,3.055-3.055v-1.945C149.925,30.688,149.697,30.46,149.416,30.46z"/>
		</g>
	</g>
	<g id="XMLID_63_">
		<g id="XMLID_64_">
			<path id="XMLID_57_" fill="#FFFFFF" d="M146.325,32.466h-12.799c-0.281,0-0.509,0.228-0.509,0.509s0.228,0.509,0.509,0.509
				h12.799c0.281,0,0.509-0.228,0.509-0.509C146.834,32.694,146.606,32.466,146.325,32.466z"/>
		</g>
	</g>
	<g id="XMLID_60_">
		<g id="XMLID_61_">
			<path id="XMLID_56_" fill="#FFFFFF" d="M145.078,25.303c-0.187-0.21-0.509-0.228-0.719-0.041l-3.925,3.506v-9.868
				c0-0.281-0.228-0.509-0.509-0.509c-0.281,0-0.509,0.228-0.509,0.509v9.868l-3.925-3.506c-0.21-0.187-0.532-0.169-0.719,0.041
				c-0.187,0.21-0.169,0.532,0.041,0.719l4.265,3.81c0.242,0.216,0.545,0.324,0.848,0.324c0.303,0,0.606-0.108,0.848-0.324
				l4.265-3.81C145.247,25.835,145.266,25.513,145.078,25.303z"/>
		</g>
	</g>
</g>
<g id="XMLID_6_">
	<path id="XMLID_888_" fill="#FFFFFF" d="M211.756,154.102c0,9.778,4.878,17.898,12.345,23.898h33.791
		c7.467-6,12.345-14.12,12.345-23.898c0-9.76-4.859-18.497-12.302-23.758c3.339-3.87,5.368-8.942,5.368-14.437
		c0-12.227-9.987-22.167-22.307-22.167c-12.32,0-22.307,9.898-22.307,22.125c0,5.495,2.029,10.615,5.368,14.485
		C216.616,135.612,211.756,144.342,211.756,154.102z"/>
	<path id="XMLID_843_" fill="#00373C" d="M214.217,139.779c-2.187,4.196-3.342,8.927-3.343,13.683
		c0,5.303,1.421,10.511,4.108,15.061c2.607,4.415,6.338,8.115,10.788,10.7c0.214,0.124,0.458,0.19,0.706,0.19h28.909
		c0.248,0,0.492-0.065,0.706-0.19c4.45-2.585,8.181-6.285,10.788-10.7c2.687-4.55,4.108-9.758,4.108-15.061
		c0-4.755-1.156-9.486-3.342-13.683c-1.892-3.631-4.559-6.879-7.761-9.468c3.115-4.083,4.815-9.084,4.815-14.235
		c0-13.007-10.662-23.59-23.768-23.59s-23.768,10.582-23.768,23.59c0,5.152,1.701,10.152,4.815,14.235
		C218.775,132.9,216.109,136.148,214.217,139.779L214.217,139.779z M213.67,153.462c0-8.566,4.157-16.717,11.119-21.804
		c0.313-0.229,0.516-0.577,0.56-0.96c0.044-0.384-0.075-0.768-0.329-1.061c-3.265-3.769-5.063-8.585-5.063-13.561
		c0-11.478,9.408-20.815,20.973-20.815s20.973,9.338,20.973,20.815c0,4.976-1.798,9.792-5.063,13.561
		c-0.254,0.293-0.373,0.677-0.329,1.061c0.044,0.383,0.247,0.732,0.56,0.96c6.963,5.087,11.119,13.237,11.119,21.804
		c0,9.447-5.044,18.293-13.19,23.176H226.86C218.714,171.755,213.669,162.909,213.67,153.462z"/>
	<path id="XMLID_838_" fill="#00373C" d="M254.889,113.242c0-0.573-0.039-1.136-0.108-1.691c-0.004-0.068-0.012-0.136-0.026-0.203
		c-0.933-6.746-6.775-11.961-13.825-11.961c-7.049,0-12.891,5.214-13.825,11.961c-0.014,0.066-0.022,0.134-0.026,0.202
		c-0.068,0.555-0.108,1.118-0.108,1.691c0,7.639,6.262,13.854,13.958,13.854C248.627,127.096,254.889,120.881,254.889,113.242
		L254.889,113.242z M229.767,113.242c0-0.222,0.009-0.443,0.022-0.662c4.475-1.994,8.35-5.202,11.142-9.207
		c2.792,4.005,6.667,7.212,11.142,9.206c0.013,0.219,0.022,0.44,0.022,0.662c0,6.109-5.008,11.079-11.163,11.079
		C234.775,124.322,229.767,119.352,229.767,113.242z M238.102,102.524c-2.017,2.674-4.586,4.914-7.512,6.551
		C231.904,105.873,234.685,103.413,238.102,102.524z M251.271,109.075c-2.927-1.637-5.495-3.877-7.512-6.551
		C247.176,103.413,249.956,105.873,251.271,109.075z"/>
	<path id="XMLID_837_" fill="#00373C" d="M217.791,145.872c0.014,0.766,0.653,1.379,1.423,1.361
		c4.724-0.087,9.35-1.411,13.377-3.828c3.264-1.958,6.079-4.594,8.242-7.7c2.181,3.132,5.025,5.785,8.325,7.749
		c4.068,2.421,8.736,3.729,13.5,3.781c0.005,0,0.011,0,0.016,0c0.765,0,1.389-0.611,1.397-1.372c0.009-0.766-0.61-1.394-1.382-1.402
		c-8.502-0.094-16.412-4.709-20.643-12.044c-0.249-0.432-0.712-0.698-1.213-0.698s-0.964,0.266-1.213,0.698
		c-4.195,7.272-12.034,11.886-20.458,12.042C218.39,144.474,217.777,145.106,217.791,145.872z"/>
	<path id="XMLID_836_" fill="#00373C" d="M234.902,113.483c0,0.766,0.626,1.387,1.398,1.387h1.179c0.772,0,1.398-0.621,1.398-1.387
		s-0.626-1.387-1.398-1.387H236.3C235.528,112.096,234.902,112.717,234.902,113.483z"/>
	<path id="XMLID_835_" fill="#00373C" d="M242.79,113.483c0,0.766,0.626,1.387,1.398,1.387h1.373c0.772,0,1.398-0.621,1.398-1.387
		s-0.626-1.387-1.398-1.387h-1.373C243.416,112.096,242.79,112.717,242.79,113.483z"/>
	<path id="XMLID_834_" fill="#00373C" d="M235.6,147.662c-4.132,0-7.493,3.336-7.494,7.437c0,1.798,0.62,3.765,1.842,5.848
		c0.388,0.662,1.244,0.886,1.911,0.5c0.667-0.386,0.893-1.235,0.504-1.897c-0.97-1.653-1.462-3.151-1.462-4.451
		c0-2.571,2.108-4.663,4.698-4.663c1.705,0,3.279,0.922,4.108,2.407c0.246,0.441,0.714,0.715,1.222,0.715s0.976-0.274,1.222-0.715
		c0.829-1.485,2.404-2.407,4.108-2.407c2.591,0,4.698,2.092,4.698,4.663c0,5.165-7.372,11.466-10.03,13.571
		c-1.237-0.976-3.362-2.754-5.347-4.904c-0.521-0.565-1.406-0.603-1.975-0.085c-0.569,0.517-0.608,1.395-0.086,1.96
		c2.737,2.965,5.72,5.261,6.57,5.894c0.249,0.186,0.544,0.278,0.839,0.278c0.296,0,0.591-0.093,0.84-0.278
		c2.811-2.096,11.984-9.477,11.984-16.435c0-4.101-3.362-7.437-7.493-7.437c-2.029,0-3.941,0.818-5.33,2.215
		C239.541,148.479,237.629,147.662,235.6,147.662L235.6,147.662z"/>
	<ellipse id="XMLID_813_" fill="#FFFFFF" cx="180.582" cy="97.061" rx="3.02" ry="2.998"/>
	<ellipse id="XMLID_884_" fill="#FFFFFF" cx="186.482" cy="107.099" rx="3.02" ry="2.998"/>
	<ellipse id="XMLID_885_" fill="#FFFFFF" cx="197.264" cy="113.617" rx="4.53" ry="4.496"/>
	<path id="XMLID_831_" fill="none" stroke="#00373C" stroke-width="3" stroke-linecap="round" stroke-miterlimit="10" d="
		M211.595,109.946c7.173-7.428,6.92-19.221-0.565-26.34c-5.988-5.695-15.493-5.494-21.231,0.448
		c-4.59,4.754-4.429,12.301,0.361,16.857c3.832,3.645,9.916,3.516,13.588-0.287c2.938-3.043,2.834-7.873-0.231-10.789
		c-2.453-2.333-6.346-2.25-8.696,0.184c-1.88,1.947-1.814,5.039,0.148,6.905c1.57,1.493,4.061,1.44,5.566-0.118
		c1.203-1.246,1.161-3.225-0.095-4.419c-1.005-0.955-2.599-0.922-3.562,0.075"/>
	
		<ellipse id="XMLID_830_" fill="none" stroke="#00373C" stroke-width="3" stroke-linecap="round" stroke-miterlimit="10" cx="197.408" cy="113.379" rx="4.492" ry="4.458"/>
	
		<ellipse id="XMLID_826_" fill="none" stroke="#00373C" stroke-width="3" stroke-linecap="round" stroke-miterlimit="10" cx="186.609" cy="106.864" rx="3.433" ry="3.407"/>
	
		<ellipse id="XMLID_825_" fill="none" stroke="#00373C" stroke-width="3" stroke-linecap="round" stroke-miterlimit="10" cx="180.398" cy="97.337" rx="2.868" ry="2.847"/>
</g>
<g id="XMLID_71_">
	<path id="XMLID_886_" fill="#FFFFFF" d="M415.666,136.868c3.343-4.395,5.33-9.877,5.33-15.824
		c0-14.453-11.716-26.169-26.169-26.169c-14.453,0-26.169,11.716-26.169,26.169c0,6.189,2.148,11.876,5.74,16.357
		c0.035,0.043,0.072,0.084,0.107,0.127l-13.456,32.133l11.84-2.556l5.785,10.495l12.545-30.642c1.18,0.163,6.545,0.127,7.962-0.111
		l12.591,30.753l5.785-10.495l11.84,2.556L415.666,136.868z"/>
	<path id="XMLID_880_" fill="#00373C" d="M430.546,170.096l-11.4-27.522c-0.29-0.701-1.094-1.034-1.795-0.744
		c-0.701,0.291-1.034,1.094-0.744,1.795l10.306,24.88l-9.4-2.724c-0.617-0.179-1.276,0.094-1.586,0.657l-4.721,8.573l-11.058-26.697
		c12.763-2.461,22.434-13.714,22.434-27.185c0-15.267-12.42-27.687-27.686-27.687c-15.267,0-27.687,12.42-27.687,27.687
		c0,6.184,2.038,11.9,5.477,16.513l-13.442,32.452c-0.202,0.488-0.107,1.049,0.246,1.442c0.352,0.394,0.899,0.55,1.406,0.403
		l11.09-3.214l5.57,10.115c0.243,0.44,0.705,0.711,1.203,0.711c0.025,0,0.051-0.001,0.076-0.002
		c0.527-0.029,0.991-0.358,1.194-0.846l10.651-25.714c0.29-0.701-0.043-1.505-0.744-1.795c-0.701-0.29-1.505,0.042-1.795,0.744
		l-9.557,23.073l-4.721-8.573c-0.31-0.563-0.969-0.836-1.586-0.657l-9.4,2.724l11.798-28.484c5.056,5.408,12.25,8.795,20.22,8.795
		c0.823,0,1.637-0.038,2.441-0.109l12.425,29.997c0.202,0.488,0.666,0.817,1.193,0.846c0.026,0.001,0.051,0.002,0.076,0.002
		c0.499,0,0.961-0.271,1.203-0.711l5.57-10.115l11.09,3.214c0.508,0.147,1.054-0.01,1.406-0.403
		C430.652,171.145,430.748,170.584,430.546,170.096L430.546,170.096z M369.956,121.131c0-13.751,11.187-24.939,24.939-24.939
		c13.751,0,24.938,11.187,24.938,24.939s-11.187,24.938-24.938,24.938C381.143,146.07,369.956,134.882,369.956,121.131
		L369.956,121.131z"/>
	<path id="XMLID_877_" fill="#00373C" d="M410.771,115.972c-0.158-0.487-0.574-0.846-1.079-0.931l-9.246-1.552l-4.333-8.314
		c-0.237-0.454-0.706-0.739-1.219-0.739c-0.512,0-0.982,0.285-1.219,0.739l-4.333,8.314l-9.246,1.552
		c-0.505,0.085-0.921,0.443-1.079,0.931s-0.033,1.022,0.326,1.387l6.568,6.69l-1.381,9.273c-0.076,0.507,0.137,1.013,0.551,1.314
		c0.414,0.301,0.962,0.346,1.42,0.118l8.392-4.179l8.392,4.179c0.194,0.097,0.404,0.144,0.612,0.144
		c0.285,0,0.569-0.089,0.808-0.262c0.414-0.301,0.627-0.808,0.551-1.314l-1.381-9.273l6.568-6.69
		C410.804,116.994,410.93,116.46,410.771,115.972z M401.436,122.613c-0.302,0.308-0.442,0.739-0.379,1.165l1.094,7.342l-6.645-3.309
		c-0.193-0.096-0.403-0.144-0.613-0.144c-0.21,0-0.42,0.048-0.612,0.144l-6.645,3.309l1.094-7.342
		c0.064-0.426-0.077-0.858-0.379-1.165l-5.2-5.297l7.321-1.229c0.425-0.071,0.792-0.338,0.991-0.72l3.431-6.583l3.431,6.583
		c0.199,0.382,0.566,0.649,0.991,0.72l7.321,1.229L401.436,122.613L401.436,122.613z"/>
	<path id="XMLID_876_" fill="#00373C" d="M415.709,122.517c-0.752-0.101-1.443,0.429-1.543,1.182
		c-1.275,9.62-9.56,16.875-19.272,16.875c-10.72,0-19.442-8.722-19.442-19.442s8.722-19.442,19.442-19.442
		c9.713,0,17.998,7.254,19.272,16.875c0.099,0.752,0.791,1.283,1.543,1.182c0.752-0.1,1.281-0.79,1.182-1.543
		c-1.455-10.981-10.911-19.262-21.997-19.262c-12.236,0-22.19,9.954-22.19,22.19s9.955,22.19,22.19,22.19
		c11.085,0,20.542-8.281,21.997-19.262C416.991,123.308,416.462,122.617,415.709,122.517L415.709,122.517z"/>
	
		<line id="XMLID_818_" stroke="#00373C" stroke-width="3" stroke-linecap="round" stroke-miterlimit="10" x1="376.509" y1="94.456" x2="361.583" y2="79.529"/>
	
		<line id="XMLID_817_" stroke="#00373C" stroke-width="3" stroke-linecap="round" stroke-miterlimit="10" x1="368.888" y1="96.361" x2="353.961" y2="81.435"/>
	
		<line id="XMLID_816_" stroke="#00373C" stroke-width="3" stroke-linecap="round" stroke-miterlimit="10" x1="359.36" y1="114.463" x2="344.434" y2="99.537"/>
	
		<line id="XMLID_815_" stroke="#00373C" stroke-width="3" stroke-linecap="round" stroke-miterlimit="10" x1="360.313" y1="124.943" x2="345.387" y2="110.017"/>
</g>
<g id="XMLID_74_">
	
		<path id="XMLID_70_" fill="none" stroke="#00373C" stroke-width="3" stroke-linecap="round" stroke-linejoin="round" stroke-miterlimit="10" d="
		M540.123,120.969c-13.624-16.338-30.307-23.389-36.379-19.068v0c-1.144,0.814-1.299,2.469-0.326,3.485l0.012,0.012l0,0
		c10.131-6.209,31.594,16.176,31.594,16.176"/>
	
		<path id="XMLID_44_" fill="none" stroke="#00373C" stroke-width="3" stroke-linecap="round" stroke-linejoin="round" stroke-miterlimit="10" d="
		M542.414,121.306c-15.862-14.131-22.473-31.149-18.068-37.191v0c0.83-1.139,2.47-1.259,3.454-0.253l0.012,0.012l0,0
		c-6.36,10.102,15.312,32.29,15.312,32.29"/>
	
		<path id="XMLID_13_" fill="none" stroke="#00373C" stroke-width="3" stroke-linecap="round" stroke-linejoin="round" stroke-miterlimit="10" d="
		M561.161,138.626c13.978,16.036,30.812,22.719,36.789,18.266l0,0c1.126-0.839,1.245-2.497,0.25-3.491l-0.012-0.012l0,0
		c-9.993,6.43-31.941-15.479-31.941-15.479"/>
	
		<path id="XMLID_868_" fill="none" stroke="#00373C" stroke-width="3" stroke-linecap="round" stroke-linejoin="round" stroke-miterlimit="10" d="
		M559.056,137.869c15.862,14.131,22.473,31.149,18.068,37.191l0,0c-0.83,1.139-2.47,1.259-3.454,0.253l-0.012-0.012l0,0
		c6.36-10.102-15.312-32.29-15.312-32.29"/>
	<path id="XMLID_68_" fill="#FFFFFF" d="M589.842,131.739c-2.13-2.663-6.012-8.383-9.589-9.651
		c-3.578-1.267-6.397-1.941-6.397-1.941l7.271-6.685l-0.211-0.23l2.625-5.082l1.84-8.075l-0.021-0.081
		c-0.322,0.104-0.518,0.165-0.518,0.165l-0.063-2.364l-1.347-5.101l-7.206-0.517c0,0-1.245-0.233-2.872-0.572
		c-0.906,0.503-1.45,0.802-1.45,0.802s-4.844,1.574-9.092,5.835c-4.249,4.261-5.226,4.646-5.226,4.646s-3.122-9.187-7.302-11.846
		c-4.18-2.658-6.067-4.748-15.121-5.397c0,0-5.689,9.112-3.03,18.013c2.659,8.901,5.438,10.617,5.438,10.617
		s-15.159,1.087-19.665,8.059c-2.478,3.835-3.662,5.799-4.229,6.795c1.483,1.971,3.133,3.937,4.601,5.156
		c2.539,2.107,5.537,3.695,8.329,4.476l1.175-0.421l4.532,0.022c0,0-0.429,0.323-1.146,0.878c3.709-0.379,9.886-2.317,9.886-2.317
		s-1.719,5.79-2.037,9.75c-0.001,0.008-0.002,0.017-0.002,0.024l0.625-0.381c0,0,0.103,8.28,2.592,11.761
		c2.489,3.481,6.071,6.821,6.071,6.821s7.9-3.09,10.467-7.135c2.567-4.045,4.883-12.118,5.194-14.404
		c0.31-2.286,0.31-2.286,0.31-2.286s6.412,4.099,10.083,4.75c3.671,0.651,14.234-0.968,16.229-2.088
		c1.995-1.121,1.995-1.121,1.995-1.121S591.971,134.402,589.842,131.739z"/>
	<path id="XMLID_871_" fill="none" stroke="#00373C" stroke-width="3" stroke-miterlimit="10" d="M560.619,132.741L560.619,132.741
		c-1.57,3.814-6.573,4.604-9.219,1.456l0,0c-0.94-1.119-2.282-1.814-3.73-1.931l0,0c-4.074-0.331-6.363-4.897-4.219-8.414v0
		c0.762-1.25,1.001-2.755,0.664-4.183v0c-0.947-4.019,2.64-7.631,6.612-6.656l0,0c1.411,0.346,2.901,0.111,4.141-0.654l0,0
		c3.488-2.153,7.995,0.181,8.305,4.3v0c0.11,1.464,0.792,2.823,1.895,3.779v0c3.103,2.689,2.3,7.742-1.479,9.314h0
		C562.245,130.31,561.177,131.386,560.619,132.741z"/>
	<path id="XMLID_870_" fill="none" stroke="#00373C" stroke-width="3" stroke-miterlimit="10" d="M558.255,122.882
		c0.259,2.058-1.181,3.939-3.217,4.201c-2.036,0.262-3.896-1.194-4.155-3.252s1.181-3.939,3.217-4.201
		C556.136,119.368,557.996,120.824,558.255,122.882z"/>
	<path id="XMLID_867_" fill="none" stroke="#00373C" stroke-width="3" stroke-miterlimit="10" d="M563.558,140.156
		c1.765,1.262,3.888,2.531,6.439,3.735c13.113,6.188,22.037-1.926,22.037-1.926s1.072-12.087-11.69-18.984
		c-7.688-4.155-13.383-4.613-16.711-4.324"/>
	<path id="XMLID_866_" fill="none" stroke="#00373C" stroke-width="3" stroke-miterlimit="10" d="M573.525,120.015
		c1.732-1.304,3.582-2.953,5.506-5.037c9.874-10.695,4.998-21.784,4.998-21.784s-11.04-4.765-21.472,5.373
		c-2.033,1.975-3.637,3.87-4.903,5.641"/>
	<path id="XMLID_865_" fill="none" stroke="#00373C" stroke-width="3" stroke-miterlimit="10" d="M559.175,112.027
		c-0.131-3.454-1.128-8.418-4.553-14.67c-7.01-12.798-18.949-11.537-18.949-11.537s-7.895,9.142-1.58,22.305
		c1.204,2.509,2.461,4.6,3.709,6.342c2.336,3.261,4.638,5.297,6.483,6.559"/>
	<path id="XMLID_864_" fill="none" stroke="#00373C" stroke-width="3" stroke-miterlimit="10" d="M537.156,114.594
		c-1.979,0.065-4.192,0.304-6.653,0.786c-14.207,2.785-16.709,14.653-16.709,14.653s6.16,10.415,20.495,8.412
		c2.793-0.39,5.191-0.97,7.244-1.65"/>
	<path id="XMLID_846_" fill="none" stroke="#00373C" stroke-width="3" stroke-miterlimit="10" d="M544.109,130.772
		c-1.676,2.905-3.351,7.193-4.103,13.368c-1.77,14.52,8.622,20.593,8.622,20.593s11.702-2.705,14.247-17.105
		c1.41-7.977,0.397-13.375-0.785-16.612"/>
	<ellipse id="XMLID_75_" fill="#FFFFFF" cx="514.116" cy="91.132" rx="4.017" ry="4.061"/>
	
		<ellipse id="XMLID_73_" fill="none" stroke="#00373C" stroke-width="3" stroke-linecap="round" stroke-linejoin="round" stroke-miterlimit="10" cx="514.473" cy="91.267" rx="3.547" ry="3.586"/>
	<ellipse id="XMLID_80_" fill="#FFFFFF" cx="587.119" cy="166.221" rx="4.017" ry="4.061"/>
	
		<ellipse id="XMLID_72_" fill="none" stroke="#00373C" stroke-width="3" stroke-linecap="round" stroke-linejoin="round" stroke-miterlimit="10" cx="587.476" cy="166.356" rx="3.547" ry="3.586"/>
</g>
<g id="XMLID_9_">
	<path id="XMLID_78_" fill="#FFFFFF" d="M101.883,90H83v68c0,0,13.141,0,18.798,0c11.395,0,9.202,10.906,9.202,10.906V144.9v-24.647
		V99.209C111,93.478,107.368,91,101.883,90z"/>
	<path id="XMLID_814_" fill="#FFFFFF" d="M40,96h43.745l0.064-4.921l18.109,0.484c5.023,0,9.082,3.027,9.082,7.39v71.168
		c0,4.595-3.502,7.878-8.794,7.878H85.154L40,178.259V96z"/>
	<path id="XMLID_736_" fill="none" stroke="#00373C" stroke-width="3" stroke-miterlimit="10" d="M111.586,171.716"/>
	<path id="XMLID_499_" fill="none" stroke="#00373C" stroke-width="3" stroke-miterlimit="10" d="M111.948,170.171"/>
	
		<path id="XMLID_812_" fill="none" stroke="#00373C" stroke-width="3" stroke-linecap="round" stroke-linejoin="round" stroke-miterlimit="10" d="
		M55.912,129.069"/>
	
		<path id="XMLID_778_" fill="none" stroke="#00373C" stroke-width="3" stroke-linecap="round" stroke-linejoin="round" stroke-miterlimit="10" d="
		M79.069,131.839"/>
	<path id="XMLID_40_" fill="none" stroke="#00373C" stroke-width="3" stroke-linejoin="round" stroke-miterlimit="10" d="
		M65.624,142.097l-6.778,10.85c-0.714,1.116-2.175,1.439-3.264,0.722h0c-1.088-0.717-1.392-2.203-0.678-3.319l7.219-11.42"/>
	
		<path id="XMLID_776_" fill="none" stroke="#00373C" stroke-width="3" stroke-linecap="round" stroke-linejoin="round" stroke-miterlimit="10" d="
		M72.89,160.491v11.925c0,1.456-1.155,2.636-2.581,2.636h0c-1.425,0-2.581-1.18-2.581-2.636v-11.688"/>
	
		<path id="XMLID_774_" fill="none" stroke="#00373C" stroke-width="3" stroke-linecap="round" stroke-linejoin="round" stroke-miterlimit="10" d="
		M82.779,160.878v11.538c0,1.456-1.155,2.636-2.581,2.636l0,0c-1.425,0-2.581-1.18-2.581-2.636v-11.993"/>
	<path id="XMLID_772_" fill="none" stroke="#00373C" stroke-width="3" stroke-miterlimit="10" d="M82.965,129.257
		c-2.439,2.078-5.127,3.259-8.551,3.259c-3.362,0-6.448-1.136-8.867-3.146"/>
	<path id="XMLID_745_" fill="none" stroke="#00373C" stroke-width="3" stroke-miterlimit="10" d="M83.277,118.536h-2.789
		c-1.447,0-2.691-0.882-3.247-2.148c-0.003-0.006-0.01-0.006-0.013,0c-0.557,1.266-1.801,2.148-3.247,2.148h-6.203
		c-0.729,0-1.407-0.275-1.971-0.66c-0.005-0.003-0.011,0-0.011,0.006v12.729c0,3.732-2.962,6.757-6.616,6.757h0
		c-3.493,0-6.326-2.876-6.33-6.443c0.004-3.567,2.836-6.366,6.33-6.366l1.804-0.142l-3.419-0.169c-2.576,0-4.683-2.222-4.683-4.852
		v-0.045c0-2.61,2.072-4.657,4.628-4.657h3.179c0.004,0,0.007-0.003,0.007-0.007c0.685-7.163,6.628-12.781,13.846-12.781v0.002
		c3.399,0,5.944,0.69,8.346,2.756"/>
	<ellipse id="XMLID_743_" fill="#00373C" cx="70.072" cy="121.98" rx="1.317" ry="1.345"/>
	<ellipse id="XMLID_742_" fill="#00373C" cx="78.399" cy="121.98" rx="1.317" ry="1.345"/>
	
		<path id="XMLID_740_" fill="none" stroke="#00373C" stroke-width="3" stroke-linecap="round" stroke-linejoin="round" stroke-miterlimit="10" d="
		M82.238,160.4H67.232H64.34c-0.878,0-1.525-0.648-1.322-1.323c0,0,2.408-8.473,3.787-15.678c-1.712-1.601-3.58-3.336-5.087-4.715
		c0.136-0.763,0.475-1.457,0.728-2.173"/>
	
		<path id="XMLID_739_" fill="none" stroke="#00373C" stroke-width="3" stroke-linecap="round" stroke-linejoin="round" stroke-miterlimit="10" d="
		M80.335,131.279c0,3.278-2.602,5.936-5.812,5.936s-5.812-2.658-5.812-5.936"/>
	<path id="XMLID_450_" fill="#FFFFFF" d="M38.047,117.783l9.05-9.243L20.102,80.969c-1.383-1.412-3.624-1.412-5.007,0l-4.043,4.129
		c-1.383,1.412-1.383,3.702,0,5.114L38.047,117.783z"/>
	
		<path id="XMLID_457_" fill="none" stroke="#00373C" stroke-width="3" stroke-linecap="round" stroke-linejoin="round" stroke-miterlimit="10" d="
		M24.058,103.807l13.796,14.091l9.286-9.485l-26.52-27.086c-1.779-1.817-4.663-1.817-6.442,0l-2.845,2.905
		c-1.779,1.817-1.779,4.763,0,6.579l8.102,8.275"/>
	
		<line id="XMLID_456_" fill="none" stroke="#00373C" stroke-width="3" stroke-linecap="round" stroke-linejoin="round" stroke-miterlimit="10" x1="21.774" y1="82.094" x2="12.961" y2="91.095"/>
	
		<polyline id="XMLID_455_" fill="none" stroke="#00373C" stroke-width="3" stroke-linecap="round" stroke-linejoin="round" stroke-miterlimit="10" points="
		37.854,117.873 49.333,119.971 47.14,108.388 	"/>
	
		<line id="XMLID_454_" fill="none" stroke="#00373C" stroke-width="3" stroke-linecap="round" stroke-linejoin="round" stroke-miterlimit="10" x1="18.566" y1="85.795" x2="42.683" y2="110.427"/>
	
		<line id="XMLID_453_" fill="none" stroke="#00373C" stroke-width="3" stroke-linecap="round" stroke-linejoin="round" stroke-miterlimit="10" x1="18.089" y1="111.75" x2="41.925" y2="136.095"/>
	
		<line id="XMLID_892_" fill="none" stroke="#00373C" stroke-width="3" stroke-linecap="round" stroke-linejoin="round" stroke-miterlimit="10" x1="28.61" y1="132.127" x2="43.191" y2="147.019"/>
	
		<line id="XMLID_14_" fill="none" stroke="#00373C" stroke-width="3" stroke-linecap="round" stroke-linejoin="round" stroke-miterlimit="10" x1="47.903" y1="96.289" x2="82.027" y2="96.289"/>
	
		<path id="XMLID_15_" fill="none" stroke="#00373C" stroke-width="3" stroke-linecap="round" stroke-linejoin="round" stroke-miterlimit="10" d="
		M110.5,166v-65.251c0-5.675-2.81-9.249-8.485-9.249H82.5v68c0,0,13.754,0,19.429,0C108.65,159.5,110.5,163.094,110.5,166"/>
	
		<path id="XMLID_41_" fill="none" stroke="#00373C" stroke-width="3" stroke-linecap="round" stroke-linejoin="round" stroke-miterlimit="10" d="
		M41.046,179.265h60.113c5.675,0,9.276-4.601,9.276-10.276v-5.652"/>
</g>
<g id="XMLID_11_">
	<polygon id="XMLID_77_" fill="#6D868A" points="689.665,95.715 678.874,111 690.034,111 	"/>
	<polygon id="XMLID_62_" fill="#77CCD4" points="729.665,163.413 709.539,154.735 689.665,163.413 689.665,96.023 729.665,96.023 	
		"/>
	<polygon id="XMLID_53_" opacity="0.1" fill="url(#New_Pattern)" points="729.665,163.413 709.539,154.735 689.665,163.413 
		689.665,96.023 729.665,96.023 	"/>
</g>
<g id="XMLID_2_">
	<path id="XMLID_23_" fill="#FFFFFF" d="M73.527,297c-16.65,0-32.367-4.828-44.255-13.525C16.833,274.374,9.988,262.097,10,248.919
		s6.879-25.439,19.336-34.517c11.882-8.659,27.579-13.43,44.2-13.43c16.73,0.015,32.447,4.812,44.335,13.509
		c12.439,9.102,19.284,21.371,19.272,34.548c-0.013,13.179-6.88,25.45-19.337,34.528C105.924,292.217,90.228,297,73.607,297H73.527z
		"/>
	<path id="XMLID_7117_" fill="#F1E7C7" d="M73.53,293.971c-16.02-0.015-31.108-4.607-42.486-12.931
		C19.397,272.518,12.989,261.11,13,248.915c0.011-12.195,6.44-23.592,18.103-32.091c11.393-8.303,26.49-12.867,42.51-12.853
		c16.019,0.015,31.108,4.607,42.486,12.931c11.647,8.521,18.055,19.93,18.044,32.125c-0.011,12.195-6.44,23.592-18.103,32.091
		C104.647,289.421,89.55,293.985,73.53,293.971z"/>
	
		<ellipse id="XMLID_7116_" transform="matrix(-1 -9.257589e-004 9.257589e-004 -1 146.9127 498.0093)" fill="#FFFDEB" cx="73.572" cy="248.971" rx="57.95" ry="42.313"/>
	<path id="XMLID_7115_" fill="#57C2B0" d="M87.79,238.77c0,0-2.469,4.65-6.123,4.647c-2.879-0.003-5.836-1.705-5.832-6.195
		c0.002-2.634,1.932-3.194,2.372-3.193c1.968,0.002,3.262,1.216,3.262,1.216s0.489-4.692-3.222-4.696
		c-1.738-0.002-3.255,1.387-4.099,3.192c-0.828-1.653-2.327-3.037-4.287-3.038c-2.076-0.002-4.423,1.426-4.425,3.827
		c-0.003,2.697,1.629,3.237,1.629,3.237s0.462-3.033,2.582-3.557c1.688-0.417,2.572,0.434,2.57,2.403
		c-0.002,1.969-1.316,6.877-7.105,6.871c-4.958-0.005-5.575-4.59-5.575-4.59s-2.695,0.537-2.7,5.634
		c-0.003,2.928,2.679,6.287,7.14,6.291c1.936,0.002,3.534-0.475,4.851-1.255c0.848,2.174,2.92,3.712,5.345,3.714
		c2.423,0.002,4.496-1.53,5.349-3.7c1,0.303,2.163,0.474,3.519,0.475c3.873,0.004,7.271-3.027,7.275-7.113
		C90.319,239.932,87.79,238.77,87.79,238.77z"/>
	<path id="XMLID_7114_" fill="#4CC2CB" d="M72.226,227.57c-0.21,0.341-0.474,0.748,0.453,1.598c0.927,0.85,1.339,1.195,1.894-0.2
		c0.555-1.395,0.259-1.861-0.116-2.063C74.083,226.702,72.563,227.024,72.226,227.57z"/>
	<path id="XMLID_7111_" fill="#D6C6AA" d="M89.151,235.662c-2.056-1.061-4.377-0.056-4.377-0.056c0.068-0.65,0.3-4.013-1.785-6.392
		c-0.827-0.944-2.112-2.22-4.531-2.222c-0.027,0-0.055,0.001-0.083,0.001c-0.001-0.015-0.004-0.029-0.005-0.043l0.061-0.146
		c0.597-1.424,1.104-2.741,1.489-6.158c0.398-3.545-0.011-8.145-0.011-8.145l-4.574,4.626c-0.636-1.146-1.197-1.8-1.532-2.131
		c-0.446-0.458-1.364-1.186-2.7-1.187c-0.439,0-0.868,0.081-1.274,0.239c-0.499,0.194-2.142,1.006-2.311,3.308l-0.003,0.036
		c-0.064,0.811-0.083,1.554-0.077,2.203l-6.86-1.428l4.853,7.02c0.098,0.141,0.972,1.401,1.716,2.3
		c0.063,0.076,0.126,0.15,0.189,0.223c-2.814,0.925-5.221,3.36-5.225,6.817c0,0.129,0.002,0.256,0.007,0.381
		c0,0-1.306-0.028-3.305,0.371c-1.999,0.399-5.295,3.007-5.301,9.245c-0.004,4.661,3.994,9.694,10.461,9.7
		c1.254,0.001,2.451-0.155,3.582-0.467c1.678,1.836,4.045,2.924,6.613,2.927c2.754,0.003,5.28-1.245,6.974-3.326
		c0.611,0.067,1.243,0.101,1.894,0.101c5.841,0.005,10.596-4.712,10.602-10.516C93.644,238.826,91.526,236.887,89.151,235.662z
		 M83.04,251.512c-0.976-0.001-1.9-0.084-2.759-0.249c-1.296,2.147-3.581,3.476-6.109,3.474c-2.436-0.002-4.643-1.24-5.956-3.252
		c-1.295,0.528-2.715,0.793-4.239,0.792c-5.294-0.005-8.567-4.028-8.563-7.752c0.006-6.227,3.695-7.034,3.852-7.065l1.478-0.295
		l0.205,1.528c0.05,0.33,0.609,3.326,4.166,3.33c5.61,0.005,5.68-5.358,5.68-5.412c0.001-0.71-0.15-0.985-0.191-1.02
		c-0.01-0.006-0.066-0.025-0.179-0.025c-0.123,0-0.272,0.021-0.441,0.063c-0.957,0.237-1.422,1.83-1.51,2.37l-0.271,1.671
		l-1.573-0.513c-0.973-0.322-2.618-1.659-2.615-4.627c0.003-3.267,3.039-5.288,5.851-5.285c0.377,0,0.748,0.041,1.111,0.118
		c-0.215-0.353-1.653-2.259-2.378-3.134c-0.703-0.849-1.577-2.112-1.614-2.166l-2.08-3.009l4.596,0.957
		c-0.031-0.257-0.059-0.538-0.086-0.845c-0.069-0.794-0.126-2.066-0.003-3.616l0.004-0.047c0.079-1.084,0.717-1.489,1.091-1.634
		c0.19-0.074,0.392-0.112,0.598-0.112c0.681,0.001,1.166,0.415,1.37,0.628c0.275,0.269,1.108,1.2,2.001,3.354
		c0.106,0.255,0.202,0.489,0.288,0.705l3.097-3.132l-0.115,3.654c-0.002,0.061-0.053,1.513-0.541,3.103
		c-0.444,1.443-0.829,4.244-1.309,5.45c-0.026,0.066-0.061,0.153-0.104,0.25c0.772-0.441,1.608-0.681,2.46-0.68
		c1.361,0.001,2.512,0.494,3.328,1.426c1.579,1.803,1.341,4.575,1.309,4.885l-0.308,2.953l-2.071-2.032c0,0-0.92-0.81-2.249-0.832
		c-0.179,0.037-0.996,0.287-0.998,1.735c-0.004,4.269,3.082,4.732,4.408,4.734c2.731,0.003,4.85-3.845,4.871-3.884l0.631-1.188
		l1.204,0.554c0.138,0.063,3.37,1.594,3.367,5.502C91.736,247.672,87.833,251.516,83.04,251.512z"/>
	<path id="XMLID_7110_" fill="#F26544" d="M69.683,225.282c0.67,0.81,1.42,1.498,1.42,1.498l4.067-1.17c0,0,0.237-0.566,0.673-1.981
		c0.436-1.416,0.476-2.711,0.476-2.711l-2.117,2.142c0,0-0.134-0.567-1.04-2.752c-0.906-2.185-1.692-2.887-1.692-2.887
		s-0.237-0.277-0.461-0.189c-0.145,0.056-0.163,0.22-0.175,0.378c-0.016,0.213-0.153,1.696-0.002,3.425
		c0.195,2.245,0.504,2.846,0.504,2.846l-3.191-0.664C68.145,223.218,69.012,224.472,69.683,225.282z"/>
	<g id="XMLID_7093_">
		<path id="XMLID_7109_" fill-rule="evenodd" clip-rule="evenodd" fill="#F26544" d="M36.794,266.04
			c0.908,1.153,0.55,3.383,1.691,4.302c0.332,0.267,0.723,0.151,1.049,0.58c0.032,0.419-0.282,0.483-0.404,0.744
			c-2.946,0.011-2.114-3.841-3.546-5.379c-0.35,0-0.7-0.001-1.049-0.001c-0.711,0.606-0.588,4.77-2.344,3.719
			c0.391-1.296,0.919-3.17,1.376-4.961c0.355-1.388,0.889-3.959,2.667-3.471c-0.019,0.52-0.505,0.752-0.728,1.157
			c-0.448,0.816-0.534,1.781-0.89,2.729c2.272,0.282,4.454-1.193,3.554-3.47c-0.896-2.267-6.036-1.353-5.893,1.566
			c0.018,0.376,0.532,1.208,0.079,1.489c-0.714,0.443-1.357-1.126-1.37-1.738c-0.079-3.651,7.39-4.981,8.395-1.481
			C39.978,263.905,38.789,265.496,36.794,266.04z"/>
		<path id="XMLID_7108_" fill-rule="evenodd" clip-rule="evenodd" fill="#F26544" d="M87.314,259.766
			c-0.115,1.051-0.505,1.818-0.67,2.819c1.173-1.038,1.933-3.696,4.421-3.071c0.36,0.09,0.902,0.592,1,1.026
			c0.593,2.636-2.228,6.657-1.509,9.14c0.151,0.523,0.817,0.97,0.749,1.282c-0.306,1.408-1.813-0.21-2-0.856
			c-0.525-1.816,0.29-3.953,0.839-5.809c0.264-0.894,1.333-3.574,0.087-3.844c-1.15-0.25-2.513,1.763-3.004,2.475
			c-1.33,1.933-1.935,4.833-2.841,7.26c-0.231,0.229-0.854,0.229-1.084-0.001c0.789-3.038,1.71-5.94,2.509-8.968
			c-0.505,0.928-3.934,1.304-3.588,3.072c0.122,0.625,0.793,0.418,0.749,1.026c-0.212,0.677-1.1,0.238-1.334,0.084
			c-1.288-0.844-0.509-2.626,0.587-3.246c0.706-0.4,1.549-0.643,2.252-1.023c0.979-0.529,1.374-0.991,2.003-1.621
			C86.665,259.324,87.281,259.66,87.314,259.766z"/>
		<path id="XMLID_7103_" fill-rule="evenodd" clip-rule="evenodd" fill="#57C2B0" d="M70.556,261.115
			c-0.524,2.227-1.855,4.286-1.537,6.96c1.489-0.229,1.425-2.452,2.451-3.447c0.63-0.611,2.821-1.263,2.999,0.316
			c0.171,1.52-1.52,2.157-3.001,1.753c-0.166,1.361,1.121,1.727,2.141,1.319c0.54-0.216,1.309-0.889,1.593-1.692
			c0.193-0.546,0.21-1.176,0.369-1.756c0.316-1.154,1.103-3.893,2.574-3.635c1.752,0.308-0.015,3.365-0.493,3.888
			c-0.462,0.506-1.073,0.833-1.531,1.19c-0.183,0.749-0.307,2.098,0.426,2.196c0.349,0.046,0.857-0.205,1.163-0.501
			c0.511-0.494,0.681-1.391,1.103-1.567c0.347,0.204-0.129,0.896-0.43,1.379c-0.446,0.717-2.056,2.233-2.999,0.812
			c-0.16-0.24-0.17-0.536-0.244-0.941c-0.46,1.027-3.018,2.159-4.163,0.874c-0.205-0.23-0.31-0.574-0.427-0.941
			c-0.519,0.624-0.964,1.639-2.205,1.315c-0.248-0.248-0.39-0.603-0.366-1.129c-0.357,1.249-2.823,2.08-2.876-0.066
			c-0.048-1.901,1.609-3.722,3.553-3.383c0.399-0.971,0.634-2.111,1.104-3.009C69.954,260.775,70.342,261.037,70.556,261.115z
			 M77.777,261.686c-0.755,0.836-1.21,2.314-1.411,3.511c0.871-0.827,1.755-1.957,1.717-3.511
			C77.981,261.687,77.879,261.687,77.777,261.686z M71.592,266.196c1.102,0.193,2.104-0.156,1.96-1.441
			C72.583,264.236,71.826,265.356,71.592,266.196z M66.021,267.508c0.202,1.615,1.528-0.185,1.775-0.688
			c0.357-0.726,0.556-1.341,0.675-2.132C66.99,264.49,65.857,266.204,66.021,267.508z"/>
		<path id="XMLID_7099_" fill-rule="evenodd" clip-rule="evenodd" fill="#F26544" d="M108.157,260.298
			c-0.264,1.183-0.748,2.139-1.004,3.331c0.335,0.198,1.027,0.031,1.501,0.087c0.278,1.112-0.936,0.693-1.668,0.767
			c-0.48,1.22-1.226,3.334-0.588,4.869c3.555,0.365,2.723-6.343,6.925-5.632c0.503,0.085,1.246,0.551,1.333,1.368
			c0.232,2.197-1.912,2.845-4.004,2.388c-0.403,2.422,2.504,2.377,3.834,1.2c0.727-0.643,0.963-1.674,1.503-1.963
			c0.455,0.393-0.313,1.593-0.669,2.05c-1.351,1.733-5.228,2.667-6.002-0.433c-0.413,1.753-4.358,3.33-4.419,0.167
			c-0.624,0.903-2.596,2.754-4.003,1.534c-0.798-0.692-0.505-2.076,0.003-3.076c0.503-0.989,1.438-1.911,0.086-2.734
			c-0.797,2.239-1.184,5.331-4.173,5.037c-1.255,1.424-4.396,1.671-4.585-0.858c-0.176-2.361,1.995-5.204,4.423-4.695
			c1.763,0.37,1.658,3.339,0.579,4.956c2.343-0.019,2.59-2.926,3.339-4.867c-0.559-0.489-0.407-2.139,0.668-1.623
			c0.372,0.39,0.019,0.615,0.166,1.026c0.333,0.93,1.689,1.414,1.665,2.394c-0.022,0.889-2.582,3.262-0.92,3.844
			c0.248,0.087,0.83-0.094,1.001-0.17c1.269-0.563,2.084-2.624,2.422-4.611c-0.143-0.309-0.828-0.064-0.583-0.77
			c0.079-0.26,0.519-0.151,0.834-0.17c0.476-1.222,0.69-2.712,1.42-3.672C107.685,259.985,107.954,260.108,108.157,260.298z
			 M93.975,269.341c0.752,0.276,1.471-0.114,1.834-0.511c-0.102-0.242-0.102-0.527,0.001-0.769c1.056-0.234,1.259-2.455,0.67-3.331
			C94.333,264.108,92.885,267.449,93.975,269.341z M110.736,266.794c1.55,0.357,2.983-0.415,2.67-1.963
			C112.072,264.11,111.079,265.675,110.736,266.794z"/>
		<path id="XMLID_7098_" fill-rule="evenodd" clip-rule="evenodd" fill="#F26544" d="M46.409,262.159
			c1.161-0.49,1.16,1.353,0.152,1.258C45.84,263.349,45.765,262.431,46.409,262.159z"/>
		<path id="XMLID_7095_" fill-rule="evenodd" clip-rule="evenodd" fill="#F26544" d="M40.747,267.532
			c-0.141,1.299,0.68,1.962,1.693,1.986c2.596,0.063,3.65-3.386,4.121-5.537c0.392-0.016,0.771-0.018,0.968,0.166
			c-0.021,1.673-1.358,3.558-0.973,5.375c1.028-0.253,2.025-1.535,2.504-2.892c0.373-1.053,0.234-3.461,1.697-2.479
			c-0.019,0.56-0.174,0.98-0.324,1.406c0.716-0.598,2.04-2.419,3.31-1.486c1.525,1.12-1.077,3.946-0.328,5.458
			c2.404-1.026,2.485-5.161,5.493-5.619c1.138-0.173,2.434,0.137,2.905,0.995c-0.125,0.176-0.292,0.308-0.404,0.496
			c-0.73-0.234-1.1-0.675-1.856-0.664c-1.885,0.029-3.665,2.924-2.587,4.712c2.033-0.341,2.106-2.695,3.071-4.132
			c0.362,0.015,0.585,0.173,0.807,0.332c-0.153,1.188-0.961,2.518-0.568,3.721c1.613-0.027,1.745-2.016,2.585-2.561
			c0.489,0.425-0.279,1.265-0.647,1.819c-0.623,0.935-1.23,1.834-2.745,1.486c-0.241-0.321-0.549-0.958-0.321-1.489
			c-0.408,0.775-2.352,2.648-3.471,1.237c-0.195-0.246-0.25-0.601-0.322-1.075c-0.46,0.736-2.347,2.459-3.149,1.155
			c-0.768-1.251,1.152-3.595,0.489-5.044c-2.565,0.292-2.731,3.046-3.394,5.29c-0.409,0.074-0.723,0.097-1.049-0.084
			c-0.169-0.299,0.096-0.754,0.162-1.075c-0.341,0.381-2.05,2.046-2.987,1.072c-0.205-0.213-0.293-0.735-0.16-1.158
			c-1.211,1.772-6.244,2.391-5.728-1.659c0.217-1.704,1.867-3.743,3.877-3.387c1.221,0.216,1.65,2.03,0.643,3.061
			C43.471,267.555,41.981,267.925,40.747,267.532z M40.909,266.871c1.506,0.343,2.87-0.408,2.584-1.9
			C42.216,264.286,41.218,265.763,40.909,266.871z"/>
		<path id="XMLID_7094_" fill="#57C2B0" d="M70.617,270.496c-1.364-0.19-2.652-0.483-4.122-0.484
			c-0.907-0.001-1.148,0.566-1.154,0.584c-0.044,0.194-0.185,0.274-0.374,0.23c-0.189-0.045-0.186-0.195-0.142-0.388
			c0.009-0.041,0.484-1.035,1.978-1.034c1.517,0.001,2.52,0.184,3.908,0.378c1.878,0.262,3.82,0.663,6.437,0.487
			c1.268-0.085,1.779-0.668,1.784-0.673c0.129-0.146,0.302-0.218,0.446-0.089c0.144,0.13,0.081,0.299-0.043,0.449
			c-0.063,0.076-0.587,0.67-2.141,0.902C74.915,271.198,72.096,270.703,70.617,270.496z"/>
	</g>
	<ellipse id="XMLID_7092_" fill="#F1E7C7" cx="73.578" cy="241.91" rx="2.185" ry="2.239"/>
	<ellipse id="XMLID_7091_" fill="#F1E7C7" cx="73.578" cy="241.91" rx="1.529" ry="1.567"/>
	<ellipse id="XMLID_7090_" fill="#F1E7C7" cx="73.578" cy="241.91" rx="2.185" ry="2.239"/>
	<ellipse id="XMLID_7089_" fill="#F1E7C7" cx="73.578" cy="241.91" rx="1.529" ry="1.567"/>
</g>
<g id="XMLID_10_">
</g>
<g id="XMLID_24_">
</g>
<g id="XMLID_25_">
</g>
<g id="XMLID_26_">
</g>
<g id="XMLID_27_">
</g>
<g id="XMLID_28_">
</g>
<g id="XMLID_29_">
</g>
<g id="XMLID_30_">
</g>
<g id="XMLID_31_">
</g>
<g id="XMLID_32_">
</g>
<g id="XMLID_33_">
</g>
<g id="XMLID_34_">
</g>
<g id="XMLID_35_">
</g>
<g id="XMLID_36_">
</g>
<g id="XMLID_37_">
</g>
</svg>
