<?xml version="1.0" encoding="utf-8"?>
<!-- Generator: Adobe Illustrator 19.0.0, SVG Export Plug-In . SVG Version: 6.00 Build 0)  -->
<svg version="1.1" id="Layer_1" xmlns="http://www.w3.org/2000/svg" xmlns:xlink="http://www.w3.org/1999/xlink" x="0px" y="0px"
	 width="1000px" height="1000px" viewBox="0 0 1000 1000" style="enable-background:new 0 0 1000 1000;" xml:space="preserve">
<style type="text/css">
	.st0{fill:none;}
	.st1{fill:#FFFFFF;}
	.st2{display:none;fill:#E6E6E6;stroke:#000000;stroke-miterlimit:10;}
	.st3{display:none;fill:#57C2B0;stroke:#0000FF;stroke-miterlimit:10;}
	.st4{fill:#00373C;}
	.st5{fill:none;stroke:#00373C;stroke-width:3;stroke-linecap:round;stroke-miterlimit:10;}
	.st6{stroke:#00373C;stroke-width:3;stroke-linecap:round;stroke-miterlimit:10;}
	.st7{fill:none;stroke:#00373C;stroke-width:3;stroke-linecap:round;stroke-linejoin:round;stroke-miterlimit:10;}
	.st8{fill:none;stroke:#00373C;stroke-width:3;stroke-miterlimit:10;}
	.st9{fill:none;stroke:#00373C;stroke-width:3;stroke-linejoin:round;stroke-miterlimit:10;}
	.st10{fill:#6D868A;}
	.st11{fill:#77CCD4;}
	.st12{opacity:0.1;fill:url(#New_Pattern);}
	.st13{fill:#F1E7C7;}
	.st14{fill:#FFFDEB;}
	.st15{fill:#57C2B0;}
	.st16{fill:#4CC2CB;}
	.st17{fill:#D6C6AA;}
	.st18{fill:#F26544;}
	.st19{fill-rule:evenodd;clip-rule:evenodd;fill:#F26544;}
	.st20{fill-rule:evenodd;clip-rule:evenodd;fill:#57C2B0;}
	.st21{fill:none;stroke:#00373C;stroke-width:2;stroke-linecap:round;stroke-linejoin:round;stroke-miterlimit:10;}
	.st22{fill:#C5EAED;}
	.st23{fill:none;stroke:#000000;stroke-width:1.5597;stroke-linecap:round;stroke-linejoin:round;}
	.st24{fill:none;stroke:#000000;stroke-width:1.5487;stroke-linecap:round;stroke-linejoin:round;stroke-miterlimit:10;}
	.st25{fill:#FFFFFF;stroke:#000000;stroke-width:1.5487;stroke-linecap:round;stroke-linejoin:round;stroke-miterlimit:10;}
	.st26{fill:#FFFFFF;stroke:#000000;stroke-width:1.549;stroke-linecap:round;stroke-linejoin:round;stroke-miterlimit:10;}
	.st27{fill:none;stroke:#000000;stroke-width:1.549;stroke-miterlimit:10;}
	.st28{fill:none;stroke:#000000;stroke-width:1.549;stroke-miterlimit:10;stroke-dasharray:3.1333,3.1333;}
	.st29{fill:url(#XMLID_97_);}
	.st30{fill:none;stroke:#000000;stroke-width:1.549;stroke-linecap:round;stroke-linejoin:round;stroke-miterlimit:10;}
	.st31{fill:none;stroke:#000000;stroke-width:1.56;stroke-linecap:round;stroke-linejoin:round;}
	.st32{fill:#FFFFFF;stroke:#000000;stroke-width:1.549;stroke-miterlimit:10;}
</style>
<pattern  width="8" height="8" patternUnits="userSpaceOnUse" id="New_Pattern" viewBox="0 -8 8 8" style="overflow:visible;">
	<g id="XMLID_7054_">
		<polygon id="XMLID_7067_" class="st0" points="0,-8 8,-8 8,0 0,0 		"/>
		<polygon id="XMLID_7066_" class="st1" points="7,-6 7,-5 6,-5 6,-4 5,-4 5,-3 4,-3 4,-2 3,-2 3,-1 2,-1 2,0 7,0 7,-1 8,-1 8,-2 
			8,-3 8,-4 8,-5 8,-6 		"/>
		<g id="XMLID_7057_">
			<polygon id="XMLID_7065_" points="0,0 1,0 1,-1 0,-1 			"/>
			<polygon id="XMLID_7064_" points="1,-1 2,-1 2,-2 1,-2 			"/>
			<polygon id="XMLID_7063_" points="2,-2 3,-2 3,-3 2,-3 			"/>
			<polygon id="XMLID_7062_" points="3,-3 4,-3 4,-4 3,-4 			"/>
			<polygon id="XMLID_7061_" points="4,-4 5,-4 5,-5 4,-5 			"/>
			<polygon id="XMLID_7060_" points="5,-5 6,-5 6,-6 5,-6 			"/>
			<polygon id="XMLID_7059_" points="6,-6 7,-6 7,-7 6,-7 			"/>
			<polygon id="XMLID_7058_" points="7,-8 7,-7 8,-7 8,-8 			"/>
		</g>
		<polygon id="XMLID_7055_" class="st1" points="1,-2 1,-3 2,-3 2,-4 3,-4 3,-5 4,-5 4,-6 5,-6 5,-7 6,-7 6,-8 1,-8 1,-7 0,-7 0,-6 
			0,-5 0,-4 0,-3 0,-2 		"/>
	</g>
</pattern>
<rect id="XMLID_10_" x="-93.2" y="-218.2" class="st2" width="1245.1" height="1389.1"/>
<rect id="XMLID_17_" x="-6" y="-34.9" class="st3" width="1108.6" height="1187.9"/>
<g id="XMLID_1_">
	<g id="XMLID_4_">
		<path id="XMLID_5_" class="st1" d="M38.7,14h-2.4c-0.7,0-1.3,0.6-1.3,1.3v2.4c0,0.7,0.6,1.3,1.3,1.3h2.4c0.7,0,1.3-0.6,1.3-1.3
			v-2.4C40,14.6,39.4,14,38.7,14z"/>
		<path id="XMLID_7_" class="st1" d="M26.9,22.4c-0.9,0-1.8,0.3-2.6,0.7C24.5,23,24.8,23,25,23c1.4,0,2.5,1.1,2.5,2.5
			c0,1.4-1.1,2.5-2.5,2.5s-2.5-1.1-2.5-2.5c0-0.3,0.1-0.5,0.1-0.7c-0.5,0.8-0.7,1.6-0.7,2.6c0,2.8,2.2,5,5,5c2.7,0,5-2.2,5-5
			S29.6,22.4,26.9,22.4z"/>
		<polygon id="XMLID_8_" class="st1" points="19.1,26.6 19.1,26.6 19.1,26.6 		"/>
		<path id="XMLID_55_" class="st1" d="M37.6,10H16.4c-3.5,0-6.4,2.9-6.4,6.4v21.3c0,3.5,2.9,6.4,6.4,6.4h21.3c3.5,0,6.4-2.9,6.4-6.4
			V16.4C44,12.9,41.1,10,37.6,10z M29.5,34.6c-5.3,1.9-11.1-2.5-10.5-8.1c0,0.1,0,0.2,0,0c0,0,0,0,0,0c0,0,0,0,0,0
			c0-1.6,0.9-3.6,2-4.6h0c3.1-3,8.6-3,11.7,0h0C36.3,26,34.7,32.8,29.5,34.6z M41,22h-5.1c-1.9-3.1-5.4-5.2-9-5.2
			c-3.7,0-7.1,2.1-9,5.2H12v-5.3c0-2.1,2.2-3.7,4.3-3.7h21.2c2.1,0,3.5,1.7,3.5,3.7V22z"/>
	</g>
	<path id="XMLID_19_" class="st1" d="M103.8,17.1c0-3.7-3-6.7-6.7-6.7H76.6c-3.7,0-6.7,3-6.7,6.7v20.5c0,3.7,3,6.7,6.7,6.7h20.5
		c3.7,0,6.7-3,6.7-6.7V17.1z M96.4,29.5c0.9,0.8,1.7,1.6,2.4,2.5c0.3,0.3,0.5,0.7,0.7,1.1c0.3,0.7,0,1.4-0.6,1.4l-3.7,0
		c-1,0.1-1.7-0.3-2.4-1c-0.5-0.5-1-1.1-1.5-1.6c0,0,0-0.1-0.1-0.1c-0.9-1-1.9-0.7-2.1,0.6c-0.1,0.3-0.1,0.6-0.1,0.9
		c0,0.6-0.5,1.1-1.1,1.1c-1.9,0.1-3.7-0.2-5.3-1.1c-1.5-0.8-2.6-2-3.6-3.3c-1.9-2.6-3.4-5.4-4.7-8.4c-0.2-0.5,0-1,0.7-1
		c1.2,0,2.4,0,3.6,0c0.5,0,0.9,0.3,1.1,0.8c0.7,1.6,1.5,3.1,2.5,4.6c0.1,0.1,0.2,0.2,0.2,0.3c0.9,1.2,1.7,0.9,1.9-0.5c0,0,0,0,0,0
		c0.1-1.1,0.1-2.2,0-3.3c-0.1-0.7-0.6-1.2-1.2-1.4c-0.3-0.1-0.3-0.2-0.1-0.4c0.3-0.3,0.6-0.6,1.1-0.6h4.2c0.7,0,0.8,0.4,0.9,1.1
		c0,0,0,0,0,0.1l0,4.6c0,0.3,0.1,1,0.6,1.2c0.4,0.1,0.6-0.2,0.8-0.4c1-1.1,1.7-2.3,2.4-3.6c0.3-0.6,0.5-1.2,0.8-1.8
		c0.2-0.4,0.5-0.7,0.9-0.6l4,0c0.1,0,0.2,0,0.4,0c0.7,0.1,0.9,0.4,0.7,1.1c-0.3,1-1,1.9-1.6,2.8c-0.7,0.9-1.4,1.8-2.1,2.8
		C95.3,28.2,95.4,28.6,96.4,29.5z"/>
</g>
<g id="XMLID_3_">
	<g id="XMLID_66_">
		<g id="XMLID_67_">
			<path id="XMLID_58_" class="st1" d="M149.4,30.5c-0.3,0-0.5,0.2-0.5,0.5v1.9c0,1.1-0.9,2-2,2H133c-1.1,0-2-0.9-2-2V31
				c0-0.3-0.2-0.5-0.5-0.5s-0.5,0.2-0.5,0.5v1.9c0,1.7,1.4,3.1,3.1,3.1h13.9c1.7,0,3.1-1.4,3.1-3.1V31
				C149.9,30.7,149.7,30.5,149.4,30.5z"/>
		</g>
	</g>
	<g id="XMLID_63_">
		<g id="XMLID_64_">
			<path id="XMLID_57_" class="st1" d="M146.3,32.5h-12.8c-0.3,0-0.5,0.2-0.5,0.5s0.2,0.5,0.5,0.5h12.8c0.3,0,0.5-0.2,0.5-0.5
				C146.8,32.7,146.6,32.5,146.3,32.5z"/>
		</g>
	</g>
	<g id="XMLID_60_">
		<g id="XMLID_61_">
			<path id="XMLID_56_" class="st1" d="M145.1,25.3c-0.2-0.2-0.5-0.2-0.7,0l-3.9,3.5v-9.9c0-0.3-0.2-0.5-0.5-0.5
				c-0.3,0-0.5,0.2-0.5,0.5v9.9l-3.9-3.5c-0.2-0.2-0.5-0.2-0.7,0c-0.2,0.2-0.2,0.5,0,0.7l4.3,3.8c0.2,0.2,0.5,0.3,0.8,0.3
				c0.3,0,0.6-0.1,0.8-0.3L145,26C145.2,25.8,145.3,25.5,145.1,25.3z"/>
		</g>
	</g>
</g>
<g id="XMLID_6_">
	<path id="XMLID_888_" class="st1" d="M211.8,154.1c0,9.8,4.9,17.9,12.3,23.9h33.8c7.5-6,12.3-14.1,12.3-23.9
		c0-9.8-4.9-18.5-12.3-23.8c3.3-3.9,5.4-8.9,5.4-14.4c0-12.2-10-22.2-22.3-22.2c-12.3,0-22.3,9.9-22.3,22.1c0,5.5,2,10.6,5.4,14.5
		C216.6,135.6,211.8,144.3,211.8,154.1z"/>
	<path id="XMLID_843_" class="st4" d="M214.2,139.8c-2.2,4.2-3.3,8.9-3.3,13.7c0,5.3,1.4,10.5,4.1,15.1c2.6,4.4,6.3,8.1,10.8,10.7
		c0.2,0.1,0.5,0.2,0.7,0.2h28.9c0.2,0,0.5-0.1,0.7-0.2c4.5-2.6,8.2-6.3,10.8-10.7c2.7-4.6,4.1-9.8,4.1-15.1c0-4.8-1.2-9.5-3.3-13.7
		c-1.9-3.6-4.6-6.9-7.8-9.5c3.1-4.1,4.8-9.1,4.8-14.2c0-13-10.7-23.6-23.8-23.6s-23.8,10.6-23.8,23.6c0,5.2,1.7,10.2,4.8,14.2
		C218.8,132.9,216.1,136.1,214.2,139.8L214.2,139.8z M213.7,153.5c0-8.6,4.2-16.7,11.1-21.8c0.3-0.2,0.5-0.6,0.6-1
		c0-0.4-0.1-0.8-0.3-1.1c-3.3-3.8-5.1-8.6-5.1-13.6c0-11.5,9.4-20.8,21-20.8s21,9.3,21,20.8c0,5-1.8,9.8-5.1,13.6
		c-0.3,0.3-0.4,0.7-0.3,1.1c0,0.4,0.2,0.7,0.6,1c7,5.1,11.1,13.2,11.1,21.8c0,9.4-5,18.3-13.2,23.2h-28.1
		C218.7,171.8,213.7,162.9,213.7,153.5z"/>
	<path id="XMLID_838_" class="st4" d="M254.9,113.2c0-0.6,0-1.1-0.1-1.7c0-0.1,0-0.1,0-0.2c-0.9-6.7-6.8-12-13.8-12
		c-7,0-12.9,5.2-13.8,12c0,0.1,0,0.1,0,0.2c-0.1,0.6-0.1,1.1-0.1,1.7c0,7.6,6.3,13.9,14,13.9C248.6,127.1,254.9,120.9,254.9,113.2
		L254.9,113.2z M229.8,113.2c0-0.2,0-0.4,0-0.7c4.5-2,8.4-5.2,11.1-9.2c2.8,4,6.7,7.2,11.1,9.2c0,0.2,0,0.4,0,0.7
		c0,6.1-5,11.1-11.2,11.1C234.8,124.3,229.8,119.4,229.8,113.2z M238.1,102.5c-2,2.7-4.6,4.9-7.5,6.6
		C231.9,105.9,234.7,103.4,238.1,102.5z M251.3,109.1c-2.9-1.6-5.5-3.9-7.5-6.6C247.2,103.4,250,105.9,251.3,109.1z"/>
	<path id="XMLID_837_" class="st4" d="M217.8,145.9c0,0.8,0.7,1.4,1.4,1.4c4.7-0.1,9.3-1.4,13.4-3.8c3.3-2,6.1-4.6,8.2-7.7
		c2.2,3.1,5,5.8,8.3,7.7c4.1,2.4,8.7,3.7,13.5,3.8c0,0,0,0,0,0c0.8,0,1.4-0.6,1.4-1.4c0-0.8-0.6-1.4-1.4-1.4
		c-8.5-0.1-16.4-4.7-20.6-12c-0.2-0.4-0.7-0.7-1.2-0.7s-1,0.3-1.2,0.7c-4.2,7.3-12,11.9-20.5,12
		C218.4,144.5,217.8,145.1,217.8,145.9z"/>
	<path id="XMLID_836_" class="st4" d="M234.9,113.5c0,0.8,0.6,1.4,1.4,1.4h1.2c0.8,0,1.4-0.6,1.4-1.4s-0.6-1.4-1.4-1.4h-1.2
		C235.5,112.1,234.9,112.7,234.9,113.5z"/>
	<path id="XMLID_835_" class="st4" d="M242.8,113.5c0,0.8,0.6,1.4,1.4,1.4h1.4c0.8,0,1.4-0.6,1.4-1.4s-0.6-1.4-1.4-1.4h-1.4
		C243.4,112.1,242.8,112.7,242.8,113.5z"/>
	<path id="XMLID_834_" class="st4" d="M235.6,147.7c-4.1,0-7.5,3.3-7.5,7.4c0,1.8,0.6,3.8,1.8,5.8c0.4,0.7,1.2,0.9,1.9,0.5
		c0.7-0.4,0.9-1.2,0.5-1.9c-1-1.7-1.5-3.2-1.5-4.5c0-2.6,2.1-4.7,4.7-4.7c1.7,0,3.3,0.9,4.1,2.4c0.2,0.4,0.7,0.7,1.2,0.7
		s1-0.3,1.2-0.7c0.8-1.5,2.4-2.4,4.1-2.4c2.6,0,4.7,2.1,4.7,4.7c0,5.2-7.4,11.5-10,13.6c-1.2-1-3.4-2.8-5.3-4.9
		c-0.5-0.6-1.4-0.6-2-0.1c-0.6,0.5-0.6,1.4-0.1,2c2.7,3,5.7,5.3,6.6,5.9c0.2,0.2,0.5,0.3,0.8,0.3c0.3,0,0.6-0.1,0.8-0.3
		c2.8-2.1,12-9.5,12-16.4c0-4.1-3.4-7.4-7.5-7.4c-2,0-3.9,0.8-5.3,2.2C239.5,148.5,237.6,147.7,235.6,147.7L235.6,147.7z"/>
	<ellipse id="XMLID_813_" class="st1" cx="180.6" cy="97.1" rx="3" ry="3"/>
	<ellipse id="XMLID_884_" class="st1" cx="186.5" cy="107.1" rx="3" ry="3"/>
	<ellipse id="XMLID_885_" class="st1" cx="197.3" cy="113.6" rx="4.5" ry="4.5"/>
	<path id="XMLID_831_" class="st5" d="M211.6,109.9c7.2-7.4,6.9-19.2-0.6-26.3c-6-5.7-15.5-5.5-21.2,0.4c-4.6,4.8-4.4,12.3,0.4,16.9
		c3.8,3.6,9.9,3.5,13.6-0.3c2.9-3,2.8-7.9-0.2-10.8c-2.5-2.3-6.3-2.3-8.7,0.2c-1.9,1.9-1.8,5,0.1,6.9c1.6,1.5,4.1,1.4,5.6-0.1
		c1.2-1.2,1.2-3.2-0.1-4.4c-1-1-2.6-0.9-3.6,0.1"/>
	<ellipse id="XMLID_830_" class="st5" cx="197.4" cy="113.4" rx="4.5" ry="4.5"/>
	<ellipse id="XMLID_826_" class="st5" cx="186.6" cy="106.9" rx="3.4" ry="3.4"/>
	<ellipse id="XMLID_825_" class="st5" cx="180.4" cy="97.3" rx="2.9" ry="2.8"/>
</g>
<g id="XMLID_71_">
	<path id="XMLID_886_" class="st1" d="M415.7,136.9c3.3-4.4,5.3-9.9,5.3-15.8c0-14.5-11.7-26.2-26.2-26.2
		c-14.5,0-26.2,11.7-26.2,26.2c0,6.2,2.1,11.9,5.7,16.4c0,0,0.1,0.1,0.1,0.1L361,169.7l11.8-2.6l5.8,10.5l12.5-30.6
		c1.2,0.2,6.5,0.1,8-0.1l12.6,30.8l5.8-10.5l11.8,2.6L415.7,136.9z"/>
	<path id="XMLID_880_" class="st4" d="M430.5,170.1l-11.4-27.5c-0.3-0.7-1.1-1-1.8-0.7c-0.7,0.3-1,1.1-0.7,1.8l10.3,24.9l-9.4-2.7
		c-0.6-0.2-1.3,0.1-1.6,0.7l-4.7,8.6l-11.1-26.7c12.8-2.5,22.4-13.7,22.4-27.2c0-15.3-12.4-27.7-27.7-27.7
		c-15.3,0-27.7,12.4-27.7,27.7c0,6.2,2,11.9,5.5,16.5l-13.4,32.5c-0.2,0.5-0.1,1,0.2,1.4c0.4,0.4,0.9,0.6,1.4,0.4l11.1-3.2l5.6,10.1
		c0.2,0.4,0.7,0.7,1.2,0.7c0,0,0.1,0,0.1,0c0.5,0,1-0.4,1.2-0.8l10.7-25.7c0.3-0.7,0-1.5-0.7-1.8c-0.7-0.3-1.5,0-1.8,0.7l-9.6,23.1
		l-4.7-8.6c-0.3-0.6-1-0.8-1.6-0.7l-9.4,2.7l11.8-28.5c5.1,5.4,12.2,8.8,20.2,8.8c0.8,0,1.6,0,2.4-0.1l12.4,30
		c0.2,0.5,0.7,0.8,1.2,0.8c0,0,0.1,0,0.1,0c0.5,0,1-0.3,1.2-0.7l5.6-10.1l11.1,3.2c0.5,0.1,1.1,0,1.4-0.4
		C430.7,171.1,430.7,170.6,430.5,170.1L430.5,170.1z M370,121.1c0-13.8,11.2-24.9,24.9-24.9c13.8,0,24.9,11.2,24.9,24.9
		s-11.2,24.9-24.9,24.9C381.1,146.1,370,134.9,370,121.1L370,121.1z"/>
	<path id="XMLID_877_" class="st4" d="M410.8,116c-0.2-0.5-0.6-0.8-1.1-0.9l-9.2-1.6l-4.3-8.3c-0.2-0.5-0.7-0.7-1.2-0.7
		c-0.5,0-1,0.3-1.2,0.7l-4.3,8.3l-9.2,1.6c-0.5,0.1-0.9,0.4-1.1,0.9s0,1,0.3,1.4l6.6,6.7l-1.4,9.3c-0.1,0.5,0.1,1,0.6,1.3
		c0.4,0.3,1,0.3,1.4,0.1l8.4-4.2l8.4,4.2c0.2,0.1,0.4,0.1,0.6,0.1c0.3,0,0.6-0.1,0.8-0.3c0.4-0.3,0.6-0.8,0.6-1.3l-1.4-9.3l6.6-6.7
		C410.8,117,410.9,116.5,410.8,116z M401.4,122.6c-0.3,0.3-0.4,0.7-0.4,1.2l1.1,7.3l-6.6-3.3c-0.2-0.1-0.4-0.1-0.6-0.1
		c-0.2,0-0.4,0-0.6,0.1l-6.6,3.3l1.1-7.3c0.1-0.4-0.1-0.9-0.4-1.2l-5.2-5.3l7.3-1.2c0.4-0.1,0.8-0.3,1-0.7l3.4-6.6l3.4,6.6
		c0.2,0.4,0.6,0.6,1,0.7l7.3,1.2L401.4,122.6L401.4,122.6z"/>
	<path id="XMLID_876_" class="st4" d="M415.7,122.5c-0.8-0.1-1.4,0.4-1.5,1.2c-1.3,9.6-9.6,16.9-19.3,16.9
		c-10.7,0-19.4-8.7-19.4-19.4s8.7-19.4,19.4-19.4c9.7,0,18,7.3,19.3,16.9c0.1,0.8,0.8,1.3,1.5,1.2c0.8-0.1,1.3-0.8,1.2-1.5
		c-1.5-11-10.9-19.3-22-19.3c-12.2,0-22.2,10-22.2,22.2s10,22.2,22.2,22.2c11.1,0,20.5-8.3,22-19.3
		C417,123.3,416.5,122.6,415.7,122.5L415.7,122.5z"/>
	<line id="XMLID_818_" class="st6" x1="376.5" y1="94.5" x2="361.6" y2="79.5"/>
	<line id="XMLID_817_" class="st6" x1="368.9" y1="96.4" x2="354" y2="81.4"/>
	<line id="XMLID_816_" class="st6" x1="359.4" y1="114.5" x2="344.4" y2="99.5"/>
	<line id="XMLID_815_" class="st6" x1="360.3" y1="124.9" x2="345.4" y2="110"/>
</g>
<g id="XMLID_74_">
	<path id="XMLID_70_" class="st7" d="M540.1,121c-13.6-16.3-30.3-23.4-36.4-19.1v0c-1.1,0.8-1.3,2.5-0.3,3.5l0,0l0,0
		c10.1-6.2,31.6,16.2,31.6,16.2"/>
	<path id="XMLID_44_" class="st7" d="M542.4,121.3c-15.9-14.1-22.5-31.1-18.1-37.2v0c0.8-1.1,2.5-1.3,3.5-0.3l0,0l0,0
		c-6.4,10.1,15.3,32.3,15.3,32.3"/>
	<path id="XMLID_13_" class="st7" d="M561.2,138.6c14,16,30.8,22.7,36.8,18.3l0,0c1.1-0.8,1.2-2.5,0.2-3.5l0,0l0,0
		c-10,6.4-31.9-15.5-31.9-15.5"/>
	<path id="XMLID_868_" class="st7" d="M559.1,137.9c15.9,14.1,22.5,31.1,18.1,37.2l0,0c-0.8,1.1-2.5,1.3-3.5,0.3l0,0l0,0
		c6.4-10.1-15.3-32.3-15.3-32.3"/>
	<path id="XMLID_68_" class="st1" d="M589.8,131.7c-2.1-2.7-6-8.4-9.6-9.7c-3.6-1.3-6.4-1.9-6.4-1.9l7.3-6.7l-0.2-0.2l2.6-5.1
		l1.8-8.1l0-0.1c-0.3,0.1-0.5,0.2-0.5,0.2l-0.1-2.4l-1.3-5.1l-7.2-0.5c0,0-1.2-0.2-2.9-0.6c-0.9,0.5-1.5,0.8-1.5,0.8
		s-4.8,1.6-9.1,5.8c-4.2,4.3-5.2,4.6-5.2,4.6s-3.1-9.2-7.3-11.8c-4.2-2.7-6.1-4.7-15.1-5.4c0,0-5.7,9.1-3,18
		c2.7,8.9,5.4,10.6,5.4,10.6s-15.2,1.1-19.7,8.1c-2.5,3.8-3.7,5.8-4.2,6.8c1.5,2,3.1,3.9,4.6,5.2c2.5,2.1,5.5,3.7,8.3,4.5l1.2-0.4
		l4.5,0c0,0-0.4,0.3-1.1,0.9c3.7-0.4,9.9-2.3,9.9-2.3s-1.7,5.8-2,9.8c0,0,0,0,0,0l0.6-0.4c0,0,0.1,8.3,2.6,11.8
		c2.5,3.5,6.1,6.8,6.1,6.8s7.9-3.1,10.5-7.1c2.6-4,4.9-12.1,5.2-14.4c0.3-2.3,0.3-2.3,0.3-2.3s6.4,4.1,10.1,4.7
		c3.7,0.7,14.2-1,16.2-2.1c2-1.1,2-1.1,2-1.1S592,134.4,589.8,131.7z"/>
	<path id="XMLID_871_" class="st8" d="M560.6,132.7L560.6,132.7c-1.6,3.8-6.6,4.6-9.2,1.5l0,0c-0.9-1.1-2.3-1.8-3.7-1.9l0,0
		c-4.1-0.3-6.4-4.9-4.2-8.4v0c0.8-1.2,1-2.8,0.7-4.2v0c-0.9-4,2.6-7.6,6.6-6.7l0,0c1.4,0.3,2.9,0.1,4.1-0.7l0,0
		c3.5-2.2,8,0.2,8.3,4.3v0c0.1,1.5,0.8,2.8,1.9,3.8v0c3.1,2.7,2.3,7.7-1.5,9.3h0C562.2,130.3,561.2,131.4,560.6,132.7z"/>
	<path id="XMLID_870_" class="st8" d="M558.3,122.9c0.3,2.1-1.2,3.9-3.2,4.2c-2,0.3-3.9-1.2-4.2-3.3s1.2-3.9,3.2-4.2
		C556.1,119.4,558,120.8,558.3,122.9z"/>
	<path id="XMLID_867_" class="st8" d="M563.6,140.2c1.8,1.3,3.9,2.5,6.4,3.7c13.1,6.2,22-1.9,22-1.9s1.1-12.1-11.7-19
		c-7.7-4.2-13.4-4.6-16.7-4.3"/>
	<path id="XMLID_866_" class="st8" d="M573.5,120c1.7-1.3,3.6-3,5.5-5c9.9-10.7,5-21.8,5-21.8s-11-4.8-21.5,5.4
		c-2,2-3.6,3.9-4.9,5.6"/>
	<path id="XMLID_865_" class="st8" d="M559.2,112c-0.1-3.5-1.1-8.4-4.6-14.7c-7-12.8-18.9-11.5-18.9-11.5s-7.9,9.1-1.6,22.3
		c1.2,2.5,2.5,4.6,3.7,6.3c2.3,3.3,4.6,5.3,6.5,6.6"/>
	<path id="XMLID_864_" class="st8" d="M537.2,114.6c-2,0.1-4.2,0.3-6.7,0.8c-14.2,2.8-16.7,14.7-16.7,14.7s6.2,10.4,20.5,8.4
		c2.8-0.4,5.2-1,7.2-1.6"/>
	<path id="XMLID_846_" class="st8" d="M544.1,130.8c-1.7,2.9-3.4,7.2-4.1,13.4c-1.8,14.5,8.6,20.6,8.6,20.6s11.7-2.7,14.2-17.1
		c1.4-8,0.4-13.4-0.8-16.6"/>
	<ellipse id="XMLID_75_" class="st1" cx="514.1" cy="91.1" rx="4" ry="4.1"/>
	<ellipse id="XMLID_73_" class="st7" cx="514.5" cy="91.3" rx="3.5" ry="3.6"/>
	<ellipse id="XMLID_80_" class="st1" cx="587.1" cy="166.2" rx="4" ry="4.1"/>
	<ellipse id="XMLID_72_" class="st7" cx="587.5" cy="166.4" rx="3.5" ry="3.6"/>
</g>
<g id="XMLID_9_">
	<path id="XMLID_78_" class="st1" d="M101.9,90H83v68c0,0,13.1,0,18.8,0c11.4,0,9.2,10.9,9.2,10.9v-24v-24.6v-21
		C111,93.5,107.4,91,101.9,90z"/>
	<path id="XMLID_814_" class="st1" d="M40,96h43.7l0.1-4.9l18.1,0.5c5,0,9.1,3,9.1,7.4v71.2c0,4.6-3.5,7.9-8.8,7.9H85.2L40,178.3V96
		z"/>
	<path id="XMLID_736_" class="st8" d="M111.6,171.7"/>
	<path id="XMLID_499_" class="st8" d="M111.9,170.2"/>
	<path id="XMLID_812_" class="st7" d="M55.9,129.1"/>
	<path id="XMLID_778_" class="st7" d="M79.1,131.8"/>
	<path id="XMLID_40_" class="st9" d="M65.6,142.1l-6.8,10.8c-0.7,1.1-2.2,1.4-3.3,0.7h0c-1.1-0.7-1.4-2.2-0.7-3.3l7.2-11.4"/>
	<path id="XMLID_776_" class="st7" d="M72.9,160.5v11.9c0,1.5-1.2,2.6-2.6,2.6h0c-1.4,0-2.6-1.2-2.6-2.6v-11.7"/>
	<path id="XMLID_774_" class="st7" d="M82.8,160.9v11.5c0,1.5-1.2,2.6-2.6,2.6l0,0c-1.4,0-2.6-1.2-2.6-2.6v-12"/>
	<path id="XMLID_772_" class="st8" d="M83,129.3c-2.4,2.1-5.1,3.3-8.6,3.3c-3.4,0-6.4-1.1-8.9-3.1"/>
	<path id="XMLID_745_" class="st8" d="M83.3,118.5h-2.8c-1.4,0-2.7-0.9-3.2-2.1c0,0,0,0,0,0c-0.6,1.3-1.8,2.1-3.2,2.1h-6.2
		c-0.7,0-1.4-0.3-2-0.7c0,0,0,0,0,0v12.7c0,3.7-3,6.8-6.6,6.8h0c-3.5,0-6.3-2.9-6.3-6.4c0-3.6,2.8-6.4,6.3-6.4l1.8-0.1l-3.4-0.2
		c-2.6,0-4.7-2.2-4.7-4.9v0c0-2.6,2.1-4.7,4.6-4.7h3.2c0,0,0,0,0,0c0.7-7.2,6.6-12.8,13.8-12.8v0c3.4,0,5.9,0.7,8.3,2.8"/>
	<ellipse id="XMLID_743_" class="st4" cx="70.1" cy="122" rx="1.3" ry="1.3"/>
	<ellipse id="XMLID_742_" class="st4" cx="78.4" cy="122" rx="1.3" ry="1.3"/>
	<path id="XMLID_740_" class="st7" d="M82.2,160.4h-15h-2.9c-0.9,0-1.5-0.6-1.3-1.3c0,0,2.4-8.5,3.8-15.7c-1.7-1.6-3.6-3.3-5.1-4.7
		c0.1-0.8,0.5-1.5,0.7-2.2"/>
	<path id="XMLID_739_" class="st7" d="M80.3,131.3c0,3.3-2.6,5.9-5.8,5.9s-5.8-2.7-5.8-5.9"/>
	<path id="XMLID_450_" class="st1" d="M38,117.8l9-9.2L20.1,81c-1.4-1.4-3.6-1.4-5,0l-4,4.1c-1.4,1.4-1.4,3.7,0,5.1L38,117.8z"/>
	<path id="XMLID_457_" class="st7" d="M24.1,103.8l13.8,14.1l9.3-9.5L20.6,81.3c-1.8-1.8-4.7-1.8-6.4,0l-2.8,2.9
		c-1.8,1.8-1.8,4.8,0,6.6l8.1,8.3"/>
	<line id="XMLID_456_" class="st7" x1="21.8" y1="82.1" x2="13" y2="91.1"/>
	<polyline id="XMLID_455_" class="st7" points="37.9,117.9 49.3,120 47.1,108.4 	"/>
	<line id="XMLID_454_" class="st7" x1="18.6" y1="85.8" x2="42.7" y2="110.4"/>
	<line id="XMLID_453_" class="st7" x1="18.1" y1="111.8" x2="41.9" y2="136.1"/>
	<line id="XMLID_892_" class="st7" x1="28.6" y1="132.1" x2="43.2" y2="147"/>
	<line id="XMLID_14_" class="st7" x1="47.9" y1="96.3" x2="82" y2="96.3"/>
	<path id="XMLID_15_" class="st7" d="M110.5,166v-65.3c0-5.7-2.8-9.2-8.5-9.2H82.5v68c0,0,13.8,0,19.4,0
		C108.6,159.5,110.5,163.1,110.5,166"/>
	<path id="XMLID_41_" class="st7" d="M41,179.3h60.1c5.7,0,9.3-4.6,9.3-10.3v-5.7"/>
</g>
<g id="XMLID_11_">
	<polygon id="XMLID_77_" class="st10" points="689.7,95.7 678.9,111 690,111 	"/>
	<polygon id="XMLID_62_" class="st11" points="729.7,163.4 709.5,154.7 689.7,163.4 689.7,96 729.7,96 	"/>
	<polygon id="XMLID_53_" class="st12" points="729.7,163.4 709.5,154.7 689.7,163.4 689.7,96 729.7,96 	"/>
</g>
<g id="XMLID_2_">
	<path id="XMLID_23_" class="st1" d="M73.5,297c-16.7,0-32.4-4.8-44.3-13.5C16.8,274.4,10,262.1,10,248.9s6.9-25.4,19.3-34.5
		c11.9-8.7,27.6-13.4,44.2-13.4c16.7,0,32.4,4.8,44.3,13.5c12.4,9.1,19.3,21.4,19.3,34.5c0,13.2-6.9,25.4-19.3,34.5
		C105.9,292.2,90.2,297,73.5,297L73.5,297z"/>
	<path id="XMLID_7117_" class="st13" d="M73.5,294c-16,0-31.1-4.6-42.5-12.9c-11.6-8.5-18.1-19.9-18-32.1c0-12.2,6.4-23.6,18.1-32.1
		c11.4-8.3,26.5-12.9,42.5-12.9c16,0,31.1,4.6,42.5,12.9c11.6,8.5,18.1,19.9,18,32.1c0,12.2-6.4,23.6-18.1,32.1
		C104.6,289.4,89.5,294,73.5,294z"/>
	
		<ellipse id="XMLID_7116_" transform="matrix(-1 -9.257589e-004 9.257589e-004 -1 146.9127 498.0093)" class="st14" cx="73.6" cy="249" rx="57.9" ry="42.3"/>
	<path id="XMLID_7115_" class="st15" d="M87.8,238.8c0,0-2.5,4.7-6.1,4.6c-2.9,0-5.8-1.7-5.8-6.2c0-2.6,1.9-3.2,2.4-3.2
		c2,0,3.3,1.2,3.3,1.2s0.5-4.7-3.2-4.7c-1.7,0-3.3,1.4-4.1,3.2c-0.8-1.7-2.3-3-4.3-3c-2.1,0-4.4,1.4-4.4,3.8c0,2.7,1.6,3.2,1.6,3.2
		s0.5-3,2.6-3.6c1.7-0.4,2.6,0.4,2.6,2.4c0,2-1.3,6.9-7.1,6.9c-5,0-5.6-4.6-5.6-4.6s-2.7,0.5-2.7,5.6c0,2.9,2.7,6.3,7.1,6.3
		c1.9,0,3.5-0.5,4.9-1.3c0.8,2.2,2.9,3.7,5.3,3.7c2.4,0,4.5-1.5,5.3-3.7c1,0.3,2.2,0.5,3.5,0.5c3.9,0,7.3-3,7.3-7.1
		C90.3,239.9,87.8,238.8,87.8,238.8z"/>
	<path id="XMLID_7114_" class="st16" d="M72.2,227.6c-0.2,0.3-0.5,0.7,0.5,1.6c0.9,0.9,1.3,1.2,1.9-0.2c0.6-1.4,0.3-1.9-0.1-2.1
		C74.1,226.7,72.6,227,72.2,227.6z"/>
	<path id="XMLID_7111_" class="st17" d="M89.2,235.7c-2.1-1.1-4.4-0.1-4.4-0.1c0.1-0.6,0.3-4-1.8-6.4c-0.8-0.9-2.1-2.2-4.5-2.2
		c0,0-0.1,0-0.1,0c0,0,0,0,0,0l0.1-0.1c0.6-1.4,1.1-2.7,1.5-6.2c0.4-3.5,0-8.1,0-8.1l-4.6,4.6c-0.6-1.1-1.2-1.8-1.5-2.1
		c-0.4-0.5-1.4-1.2-2.7-1.2c-0.4,0-0.9,0.1-1.3,0.2c-0.5,0.2-2.1,1-2.3,3.3l0,0c-0.1,0.8-0.1,1.6-0.1,2.2l-6.9-1.4l4.9,7
		c0.1,0.1,1,1.4,1.7,2.3c0.1,0.1,0.1,0.2,0.2,0.2c-2.8,0.9-5.2,3.4-5.2,6.8c0,0.1,0,0.3,0,0.4c0,0-1.3,0-3.3,0.4
		c-2,0.4-5.3,3-5.3,9.2c0,4.7,4,9.7,10.5,9.7c1.3,0,2.5-0.2,3.6-0.5c1.7,1.8,4,2.9,6.6,2.9c2.8,0,5.3-1.2,7-3.3
		c0.6,0.1,1.2,0.1,1.9,0.1c5.8,0,10.6-4.7,10.6-10.5C93.6,238.8,91.5,236.9,89.2,235.7z M83,251.5c-1,0-1.9-0.1-2.8-0.2
		c-1.3,2.1-3.6,3.5-6.1,3.5c-2.4,0-4.6-1.2-6-3.3c-1.3,0.5-2.7,0.8-4.2,0.8c-5.3,0-8.6-4-8.6-7.8c0-6.2,3.7-7,3.9-7.1l1.5-0.3
		l0.2,1.5c0.1,0.3,0.6,3.3,4.2,3.3c5.6,0,5.7-5.4,5.7-5.4c0-0.7-0.2-1-0.2-1c0,0-0.1,0-0.2,0c-0.1,0-0.3,0-0.4,0.1
		c-1,0.2-1.4,1.8-1.5,2.4l-0.3,1.7l-1.6-0.5c-1-0.3-2.6-1.7-2.6-4.6c0-3.3,3-5.3,5.9-5.3c0.4,0,0.7,0,1.1,0.1
		c-0.2-0.4-1.7-2.3-2.4-3.1c-0.7-0.8-1.6-2.1-1.6-2.2l-2.1-3l4.6,1c0-0.3-0.1-0.5-0.1-0.8c-0.1-0.8-0.1-2.1,0-3.6l0,0
		c0.1-1.1,0.7-1.5,1.1-1.6c0.2-0.1,0.4-0.1,0.6-0.1c0.7,0,1.2,0.4,1.4,0.6c0.3,0.3,1.1,1.2,2,3.4c0.1,0.3,0.2,0.5,0.3,0.7l3.1-3.1
		l-0.1,3.7c0,0.1-0.1,1.5-0.5,3.1c-0.4,1.4-0.8,4.2-1.3,5.5c0,0.1-0.1,0.2-0.1,0.3c0.8-0.4,1.6-0.7,2.5-0.7c1.4,0,2.5,0.5,3.3,1.4
		c1.6,1.8,1.3,4.6,1.3,4.9l-0.3,3l-2.1-2c0,0-0.9-0.8-2.2-0.8c-0.2,0-1,0.3-1,1.7c0,4.3,3.1,4.7,4.4,4.7c2.7,0,4.9-3.8,4.9-3.9
		l0.6-1.2l1.2,0.6c0.1,0.1,3.4,1.6,3.4,5.5C91.7,247.7,87.8,251.5,83,251.5z"/>
	<path id="XMLID_7110_" class="st18" d="M69.7,225.3c0.7,0.8,1.4,1.5,1.4,1.5l4.1-1.2c0,0,0.2-0.6,0.7-2c0.4-1.4,0.5-2.7,0.5-2.7
		l-2.1,2.1c0,0-0.1-0.6-1-2.8c-0.9-2.2-1.7-2.9-1.7-2.9s-0.2-0.3-0.5-0.2c-0.1,0.1-0.2,0.2-0.2,0.4c0,0.2-0.2,1.7,0,3.4
		c0.2,2.2,0.5,2.8,0.5,2.8l-3.2-0.7C68.1,223.2,69,224.5,69.7,225.3z"/>
	<g id="XMLID_7093_">
		<path id="XMLID_7109_" class="st19" d="M36.8,266c0.9,1.2,0.5,3.4,1.7,4.3c0.3,0.3,0.7,0.2,1,0.6c0,0.4-0.3,0.5-0.4,0.7
			c-2.9,0-2.1-3.8-3.5-5.4c-0.3,0-0.7,0-1,0c-0.7,0.6-0.6,4.8-2.3,3.7c0.4-1.3,0.9-3.2,1.4-5c0.4-1.4,0.9-4,2.7-3.5
			c0,0.5-0.5,0.8-0.7,1.2c-0.4,0.8-0.5,1.8-0.9,2.7c2.3,0.3,4.5-1.2,3.6-3.5c-0.9-2.3-6-1.4-5.9,1.6c0,0.4,0.5,1.2,0.1,1.5
			c-0.7,0.4-1.4-1.1-1.4-1.7c-0.1-3.7,7.4-5,8.4-1.5C40,263.9,38.8,265.5,36.8,266z"/>
		<path id="XMLID_7108_" class="st19" d="M87.3,259.8c-0.1,1.1-0.5,1.8-0.7,2.8c1.2-1,1.9-3.7,4.4-3.1c0.4,0.1,0.9,0.6,1,1
			c0.6,2.6-2.2,6.7-1.5,9.1c0.2,0.5,0.8,1,0.7,1.3c-0.3,1.4-1.8-0.2-2-0.9c-0.5-1.8,0.3-4,0.8-5.8c0.3-0.9,1.3-3.6,0.1-3.8
			c-1.1-0.2-2.5,1.8-3,2.5c-1.3,1.9-1.9,4.8-2.8,7.3c-0.2,0.2-0.9,0.2-1.1,0c0.8-3,1.7-5.9,2.5-9c-0.5,0.9-3.9,1.3-3.6,3.1
			c0.1,0.6,0.8,0.4,0.7,1c-0.2,0.7-1.1,0.2-1.3,0.1c-1.3-0.8-0.5-2.6,0.6-3.2c0.7-0.4,1.5-0.6,2.3-1c1-0.5,1.4-1,2-1.6
			C86.7,259.3,87.3,259.7,87.3,259.8z"/>
		<path id="XMLID_7103_" class="st20" d="M70.6,261.1c-0.5,2.2-1.9,4.3-1.5,7c1.5-0.2,1.4-2.5,2.5-3.4c0.6-0.6,2.8-1.3,3,0.3
			c0.2,1.5-1.5,2.2-3,1.8c-0.2,1.4,1.1,1.7,2.1,1.3c0.5-0.2,1.3-0.9,1.6-1.7c0.2-0.5,0.2-1.2,0.4-1.8c0.3-1.2,1.1-3.9,2.6-3.6
			c1.8,0.3,0,3.4-0.5,3.9c-0.5,0.5-1.1,0.8-1.5,1.2c-0.2,0.7-0.3,2.1,0.4,2.2c0.3,0,0.9-0.2,1.2-0.5c0.5-0.5,0.7-1.4,1.1-1.6
			c0.3,0.2-0.1,0.9-0.4,1.4c-0.4,0.7-2.1,2.2-3,0.8c-0.2-0.2-0.2-0.5-0.2-0.9c-0.5,1-3,2.2-4.2,0.9c-0.2-0.2-0.3-0.6-0.4-0.9
			c-0.5,0.6-1,1.6-2.2,1.3c-0.2-0.2-0.4-0.6-0.4-1.1c-0.4,1.2-2.8,2.1-2.9-0.1c0-1.9,1.6-3.7,3.6-3.4c0.4-1,0.6-2.1,1.1-3
			C70,260.8,70.3,261,70.6,261.1z M77.8,261.7c-0.8,0.8-1.2,2.3-1.4,3.5c0.9-0.8,1.8-2,1.7-3.5C78,261.7,77.9,261.7,77.8,261.7z
			 M71.6,266.2c1.1,0.2,2.1-0.2,2-1.4C72.6,264.2,71.8,265.4,71.6,266.2z M66,267.5c0.2,1.6,1.5-0.2,1.8-0.7
			c0.4-0.7,0.6-1.3,0.7-2.1C67,264.5,65.9,266.2,66,267.5z"/>
		<path id="XMLID_7099_" class="st19" d="M108.2,260.3c-0.3,1.2-0.7,2.1-1,3.3c0.3,0.2,1,0,1.5,0.1c0.3,1.1-0.9,0.7-1.7,0.8
			c-0.5,1.2-1.2,3.3-0.6,4.9c3.6,0.4,2.7-6.3,6.9-5.6c0.5,0.1,1.2,0.6,1.3,1.4c0.2,2.2-1.9,2.8-4,2.4c-0.4,2.4,2.5,2.4,3.8,1.2
			c0.7-0.6,1-1.7,1.5-2c0.5,0.4-0.3,1.6-0.7,2c-1.4,1.7-5.2,2.7-6-0.4c-0.4,1.8-4.4,3.3-4.4,0.2c-0.6,0.9-2.6,2.8-4,1.5
			c-0.8-0.7-0.5-2.1,0-3.1c0.5-1,1.4-1.9,0.1-2.7c-0.8,2.2-1.2,5.3-4.2,5c-1.3,1.4-4.4,1.7-4.6-0.9c-0.2-2.4,2-5.2,4.4-4.7
			c1.8,0.4,1.7,3.3,0.6,5c2.3,0,2.6-2.9,3.3-4.9c-0.6-0.5-0.4-2.1,0.7-1.6c0.4,0.4,0,0.6,0.2,1c0.3,0.9,1.7,1.4,1.7,2.4
			c0,0.9-2.6,3.3-0.9,3.8c0.2,0.1,0.8-0.1,1-0.2c1.3-0.6,2.1-2.6,2.4-4.6c-0.1-0.3-0.8-0.1-0.6-0.8c0.1-0.3,0.5-0.2,0.8-0.2
			c0.5-1.2,0.7-2.7,1.4-3.7C107.7,260,108,260.1,108.2,260.3z M94,269.3c0.8,0.3,1.5-0.1,1.8-0.5c-0.1-0.2-0.1-0.5,0-0.8
			c1.1-0.2,1.3-2.5,0.7-3.3C94.3,264.1,92.9,267.4,94,269.3z M110.7,266.8c1.6,0.4,3-0.4,2.7-2C112.1,264.1,111.1,265.7,110.7,266.8
			z"/>
		<path id="XMLID_7098_" class="st19" d="M46.4,262.2c1.2-0.5,1.2,1.4,0.2,1.3C45.8,263.3,45.8,262.4,46.4,262.2z"/>
		<path id="XMLID_7095_" class="st19" d="M40.7,267.5c-0.1,1.3,0.7,2,1.7,2c2.6,0.1,3.7-3.4,4.1-5.5c0.4,0,0.8,0,1,0.2
			c0,1.7-1.4,3.6-1,5.4c1-0.3,2-1.5,2.5-2.9c0.4-1.1,0.2-3.5,1.7-2.5c0,0.6-0.2,1-0.3,1.4c0.7-0.6,2-2.4,3.3-1.5
			c1.5,1.1-1.1,3.9-0.3,5.5c2.4-1,2.5-5.2,5.5-5.6c1.1-0.2,2.4,0.1,2.9,1c-0.1,0.2-0.3,0.3-0.4,0.5c-0.7-0.2-1.1-0.7-1.9-0.7
			c-1.9,0-3.7,2.9-2.6,4.7c2-0.3,2.1-2.7,3.1-4.1c0.4,0,0.6,0.2,0.8,0.3c-0.2,1.2-1,2.5-0.6,3.7c1.6,0,1.7-2,2.6-2.6
			c0.5,0.4-0.3,1.3-0.6,1.8c-0.6,0.9-1.2,1.8-2.7,1.5c-0.2-0.3-0.5-1-0.3-1.5c-0.4,0.8-2.4,2.6-3.5,1.2c-0.2-0.2-0.2-0.6-0.3-1.1
			c-0.5,0.7-2.3,2.5-3.1,1.2c-0.8-1.3,1.2-3.6,0.5-5c-2.6,0.3-2.7,3-3.4,5.3c-0.4,0.1-0.7,0.1-1-0.1c-0.2-0.3,0.1-0.8,0.2-1.1
			c-0.3,0.4-2.1,2-3,1.1c-0.2-0.2-0.3-0.7-0.2-1.2c-1.2,1.8-6.2,2.4-5.7-1.7c0.2-1.7,1.9-3.7,3.9-3.4c1.2,0.2,1.7,2,0.6,3.1
			C43.5,267.6,42,267.9,40.7,267.5z M40.9,266.9c1.5,0.3,2.9-0.4,2.6-1.9C42.2,264.3,41.2,265.8,40.9,266.9z"/>
		<path id="XMLID_7094_" class="st15" d="M70.6,270.5c-1.4-0.2-2.7-0.5-4.1-0.5c-0.9,0-1.1,0.6-1.2,0.6c0,0.2-0.2,0.3-0.4,0.2
			c-0.2,0-0.2-0.2-0.1-0.4c0,0,0.5-1,2-1c1.5,0,2.5,0.2,3.9,0.4c1.9,0.3,3.8,0.7,6.4,0.5c1.3-0.1,1.8-0.7,1.8-0.7
			c0.1-0.1,0.3-0.2,0.4-0.1c0.1,0.1,0.1,0.3,0,0.4c-0.1,0.1-0.6,0.7-2.1,0.9C74.9,271.2,72.1,270.7,70.6,270.5z"/>
	</g>
	<ellipse id="XMLID_7092_" class="st13" cx="73.6" cy="241.9" rx="2.2" ry="2.2"/>
	<ellipse id="XMLID_7091_" class="st13" cx="73.6" cy="241.9" rx="1.5" ry="1.6"/>
	<ellipse id="XMLID_7090_" class="st13" cx="73.6" cy="241.9" rx="2.2" ry="2.2"/>
	<ellipse id="XMLID_7089_" class="st13" cx="73.6" cy="241.9" rx="1.5" ry="1.6"/>
</g>
<g id="XMLID_24_">
	<circle id="XMLID_28_" class="st21" cx="191" cy="24" r="8.8"/>
	<line id="XMLID_27_" class="st21" x1="175.8" y1="39.2" x2="184.4" y2="30.6"/>
	<g id="XMLID_25_">
		<line id="XMLID_26_" class="st21" x1="186.9" y1="24" x2="195.1" y2="24"/>
		<line id="XMLID_101_" class="st21" x1="191" y1="28.1" x2="191" y2="19.9"/>
	</g>
</g>
<g id="XMLID_222_">
	<g id="XMLID_156_">
		<circle id="XMLID_220_" class="st22" cx="41.8" cy="427.4" r="25.4"/>
		<g id="XMLID_158_">
			<g id="XMLID_206_">
				<g id="XMLID_217_">
					<line id="XMLID_226_" class="st23" x1="25.6" y1="405.7" x2="25.6" y2="449.5"/>
					<g id="XMLID_224_">
						<polygon id="XMLID_225_" points="23.4,406.4 25.6,402.6 27.7,406.4 						"/>
					</g>
					<g id="XMLID_218_">
						<polygon id="XMLID_223_" points="23.4,448.8 25.6,452.6 27.7,448.8 						"/>
					</g>
				</g>
			</g>
			<path id="XMLID_205_" class="st1" d="M51.6,436.6h2.2c1.2-0.2,1.9-1.4,1.7-2.6l-3.4-10.3c-0.4-2-2.4-3.7-4.4-3.5l-6.7,0.1
				c-2.2-0.5-4.3,1.3-4.8,3.4L32.8,434c-0.2,1.2,0.5,2.3,1.7,2.6h2.1l-0.1,0.2l-1.3,5.5c0,0.8,0.7,1.4,1.5,1.4h12.2h2.7
				c0.8,0,1.5-0.6,1.5-1.4l-1.3-5.5"/>
			<path id="XMLID_204_" class="st1" d="M49.9,443.7v6.8c0,1.2-1,2.1-2.1,2.1c-1.2,0-2.1-1-2.1-2.1v-6.8H49.9z"/>
			<path id="XMLID_199_" class="st1" d="M42.8,443.7v6.8c0,1.2-0.9,2.1-2.1,2.1c-1.2,0-2.1-1-2.1-2.1v-6.8H42.8z"/>
			<path id="XMLID_198_" class="st24" d="M39.2,443.7h-2.7c-0.8,0-1.5-0.6-1.5-1.4l1.3-5.5l2.3-9.7"/>
			<line id="XMLID_174_" class="st24" x1="45.2" y1="443.7" x2="42.8" y2="443.7"/>
			<path id="XMLID_167_" class="st24" d="M49.3,427.1l2.3,9.7l1.3,5.5c0,0.8-0.7,1.4-1.5,1.4h-2.7"/>
			<path id="XMLID_166_" class="st24" d="M42.8,443.7v6.8c0,1.2-0.9,2.1-2.1,2.1c-1.2,0-2.1-1-2.1-2.1v-6.8H42.8z"/>
			<path id="XMLID_165_" class="st24" d="M49.9,443.7v6.8c0,1.2-1,2.1-2.1,2.1c-1.2,0-2.1-1-2.1-2.1v-6.8H49.9z"/>
			<path id="XMLID_160_" class="st24" d="M47.5,420.6c2-0.2,3.9,1.1,4.4,3.1l3.4,10.3c0.2,1.2-0.5,2.3-1.7,2.6"/>
			<path id="XMLID_159_" class="st24" d="M40.8,420.7c-2.2-0.5-4.3,0.9-4.8,3.1L32.6,434c-0.2,1.2,0.5,2.3,1.7,2.6"/>
			<g id="XMLID_176_">
				<circle id="XMLID_180_" class="st25" cx="33.8" cy="413.1" r="3.7"/>
				<circle id="XMLID_179_" class="st25" cx="54.3" cy="413.1" r="3.7"/>
				<path id="XMLID_178_" class="st25" d="M41.3,419.7c-3.9-1.1-6.7-4.4-6.7-8.3c0-4.8,4.2-8.7,9.5-8.7s9.5,3.9,9.5,8.7
					c0,3.8-2.6,7-6.3,8.2c-1,0.3-2.1,0.5-3.2,0.5C43.1,420.1,42.2,419.9,41.3,419.7z"/>
				<path id="XMLID_177_" class="st24" d="M34.9,410.4c0.2,0,0.5,0,0.7,0c3.9,0,7.3-4.5,8.6-7.2c1.3,2.7,4.6,7.2,8.6,7.2
					c0.2,0,0.5,0,0.7,0"/>
			</g>
		</g>
	</g>
	<g id="XMLID_143_">
		<circle id="XMLID_246_" class="st22" cx="41.8" cy="352.2" r="25.4"/>
		<g id="XMLID_144_">
			<rect id="XMLID_155_" x="21.4" y="343" class="st26" width="32.9" height="26.1"/>
			<polyline id="XMLID_154_" class="st26" points="33.3,361.9 29,361.9 29,338.6 58.3,338.6 58.3,361.9 39.2,361.9 			"/>
			<polyline id="XMLID_153_" class="st26" points="40.3,354.3 36.6,354.3 36.6,334 62.2,334 62.2,354.3 45.5,354.3 			"/>
			<g id="XMLID_146_">
				<line id="XMLID_202_" class="st1" x1="49.5" y1="326.6" x2="49.5" y2="376.6"/>
				<g id="XMLID_151_">
					<line id="XMLID_201_" class="st27" x1="49.5" y1="326.6" x2="49.5" y2="328.1"/>
					<line id="XMLID_200_" class="st28" x1="49.5" y1="331.2" x2="49.5" y2="373.5"/>
					<line id="XMLID_152_" class="st27" x1="49.5" y1="375.1" x2="49.5" y2="376.6"/>
				</g>
			</g>
			<circle id="XMLID_145_" cx="42.8" cy="354.3" r="0.8"/>
			<circle id="XMLID_219_" cx="36.3" cy="361.9" r="0.8"/>
		</g>
	</g>
	<g id="XMLID_120_">
		<circle id="XMLID_142_" class="st22" cx="41.8" cy="502.8" r="25.4"/>
		<g id="XMLID_121_">
			<g id="XMLID_139_">
				<linearGradient id="XMLID_97_" gradientUnits="userSpaceOnUse" x1="24.7026" y1="502.1966" x2="24.7026" y2="502.1966">
					<stop  offset="0" style="stop-color:#FFFFFF"/>
					<stop  offset="1" style="stop-color:#000000"/>
				</linearGradient>
				<line id="XMLID_234_" class="st29" x1="24.7" y1="477.2" x2="24.7" y2="527.2"/>
				<g id="XMLID_228_">
					<line id="XMLID_233_" class="st23" x1="24.7" y1="480.3" x2="24.7" y2="524.1"/>
					<g id="XMLID_231_">
						<polygon id="XMLID_232_" points="22.5,481 24.7,477.2 26.9,481 						"/>
					</g>
					<g id="XMLID_229_">
						<polygon id="XMLID_230_" points="22.5,523.4 24.7,527.2 26.9,523.4 						"/>
					</g>
				</g>
			</g>
			<rect id="XMLID_138_" x="31.1" y="477.2" class="st26" width="27.7" height="50"/>
			<path id="XMLID_137_" class="st1" d="M51,511.3h1.7c0.9-0.2,1.5-1.1,1.3-2l-2.7-8.1c-0.4-1.6-1.9-2.9-3.4-2.8l-5.3,0.1
				c-1.7-0.4-3.4,1-3.8,2.7l-2.7,8.1c-0.2,0.9,0.4,1.8,1.3,2h1.7l0,0.1l-1,4.3c0,0.6,0.5,1.1,1.2,1.1h9.6H51c0.7,0,1.2-0.5,1.2-1.1
				l-1-4.4"/>
			<path id="XMLID_136_" class="st1" d="M49.6,516.9v5.4c0,0.9-0.8,1.7-1.7,1.7c-0.9,0-1.7-0.8-1.7-1.7v-5.4H49.6z"/>
			<path id="XMLID_135_" class="st1" d="M44,516.9v5.4c0,0.9-0.7,1.7-1.7,1.7c-0.9,0-1.7-0.8-1.7-1.7v-5.4H44z"/>
			<path id="XMLID_134_" class="st24" d="M41.2,516.9h-2.1c-0.7,0-1.2-0.5-1.2-1.1l1-4.4l1.8-7.6"/>
			<line id="XMLID_133_" class="st24" x1="45.9" y1="516.9" x2="44" y2="516.9"/>
			<path id="XMLID_132_" class="st24" d="M49.1,503.8l1.8,7.6l1,4.4c0,0.6-0.5,1.1-1.2,1.1h-2.1"/>
			<path id="XMLID_131_" class="st24" d="M44,516.9v5.4c0,0.9-0.7,1.7-1.7,1.7c-0.9,0-1.7-0.8-1.7-1.7v-5.4H44z"/>
			<path id="XMLID_130_" class="st24" d="M49.6,516.9v5.4c0,0.9-0.8,1.7-1.7,1.7c-0.9,0-1.7-0.8-1.7-1.7v-5.4H49.6z"/>
			<path id="XMLID_129_" class="st30" d="M47.8,498.7c1.6-0.2,3.1,0.9,3.4,2.5l2.7,8.1c0.2,0.9-0.4,1.8-1.3,2"/>
			<path id="XMLID_128_" class="st24" d="M42.5,498.7c-1.7-0.4-3.4,0.7-3.8,2.4l-2.7,8.1c-0.2,0.9,0.4,1.8,1.3,2"/>
			<circle id="XMLID_127_" class="st25" cx="37" cy="492.8" r="2.9"/>
			<circle id="XMLID_126_" class="st25" cx="53.1" cy="492.8" r="2.9"/>
			<path id="XMLID_125_" class="st25" d="M42.8,497.9c-3-0.9-5.2-3.5-5.2-6.6c0-3.8,3.3-6.9,7.5-6.9s7.5,3.1,7.5,6.9
				c0,3-2.1,5.5-5,6.5c-0.8,0.3-1.6,0.4-2.5,0.4C44.3,498.3,43.5,498.1,42.8,497.9z"/>
			<path id="XMLID_124_" class="st24" d="M37.8,490.6c0.2,0,0.4,0,0.5,0c3.1,0,5.7-3.5,6.7-5.7c1,2.2,3.6,5.7,6.7,5.7
				c0.2,0,0.4,0,0.5,0"/>
			<line id="XMLID_123_" class="st26" x1="31.1" y1="526.4" x2="36.9" y2="522.4"/>
			<line id="XMLID_122_" class="st26" x1="58.9" y1="526.4" x2="53.2" y2="522.4"/>
		</g>
	</g>
	<circle id="XMLID_119_" class="st22" cx="41.7" cy="651.3" r="25.4"/>
	<g id="XMLID_89_">
		<g id="XMLID_100_">
			<polygon id="XMLID_112_" class="st1" points="41.7,633.4 23.3,641 23.3,664.5 41.7,672.1 60.2,664.5 60.2,641 			"/>
			<polygon id="XMLID_111_" class="st24" points="23.3,664.5 41.7,672.1 41.7,648.6 23.3,641 			"/>
			<polygon id="XMLID_110_" class="st24" points="60.2,641 60.2,664.5 41.7,672.1 41.7,648.6 			"/>
			<line id="XMLID_106_" class="st24" x1="23.3" y1="641" x2="41.7" y2="633.4"/>
			<line id="XMLID_104_" class="st24" x1="41.7" y1="633.4" x2="60.2" y2="641"/>
			<polyline id="XMLID_103_" class="st24" points="36,635.8 54.4,643.4 54.4,651 50,652.9 			"/>
			<polyline id="XMLID_102_" class="st24" points="50,652.9 50,645.3 31.5,637.7 			"/>
		</g>
		<g id="XMLID_95_">
			<g id="XMLID_236_">
				<polyline id="XMLID_241_" class="st31" points="16.3,644.7 16.3,669.6 35.4,677.5 				"/>
				<g id="XMLID_239_">
					<polygon id="XMLID_240_" points="14.1,645.3 16.3,641.5 18.5,645.3 					"/>
				</g>
				<g id="XMLID_237_">
					<polygon id="XMLID_238_" points="34,679.2 38.3,678.7 35.7,675.2 					"/>
				</g>
			</g>
		</g>
	</g>
	<circle id="XMLID_84_" class="st22" cx="41.7" cy="726.1" r="25.4"/>
	<g id="XMLID_36_">
		<g id="XMLID_38_">
			<polygon id="XMLID_81_" class="st1" points="41.7,708.5 23.3,716.1 23.3,739.6 41.7,747.2 60.2,739.6 60.2,716.1 			"/>
			<polygon id="XMLID_79_" class="st24" points="23.3,739.6 41.7,747.2 41.7,723.7 23.3,716.1 			"/>
			<polyline id="XMLID_50_" class="st24" points="41.7,731.7 41.7,723.7 60.2,716.1 60.2,739.6 41.7,747.2 41.7,731.7 			"/>
			<line id="XMLID_46_" class="st24" x1="23.3" y1="716.1" x2="41.7" y2="708.5"/>
			<line id="XMLID_43_" class="st24" x1="41.7" y1="708.5" x2="60.2" y2="716.1"/>
			<polyline id="XMLID_42_" class="st24" points="36,710.9 54.4,718.5 54.4,726.1 50,728 			"/>
			<polyline id="XMLID_39_" class="st30" points="50,728 50,720.4 31.5,712.8 			"/>
		</g>
		<g id="XMLID_37_">
			<circle id="XMLID_45_" class="st32" cx="24.2" cy="740.3" r="14.2"/>
			<g id="XMLID_171_">
				<path id="XMLID_172_" d="M13.7,746.5c0.6,0,1.1-0.1,1.5-0.2c0.4-0.2,0.7-0.4,1-0.7c0.3-0.3,0.5-0.7,0.6-1.1
					c0.2-0.4,0.3-0.9,0.5-1.5l0.7-2.7l1.7,6.2l5-6.2l-1.4,6.1h2.6l0.3-1.4h-1.1l1.3-5.7h1.3l0.3-1.4H25l-4.6,6l-1.6-6h-2.6l-0.3,1.4
					h1l-0.9,3c-0.2,0.6-0.3,1.1-0.5,1.4c-0.1,0.4-0.3,0.7-0.5,0.9c-0.2,0.2-0.4,0.3-0.6,0.4c-0.2,0.1-0.5,0.1-0.8,0.1l-0.3,1.4H13.7
					z"/>
			</g>
			<g id="XMLID_168_">
				<path id="XMLID_169_" d="M28.3,739.5c0,0.1,0,0.2,0,0.3c0,0.2,0.1,0.4,0.3,0.6c0.1,0.2,0.3,0.4,0.5,0.5c0.2,0.1,0.4,0.2,0.7,0.3
					c0.2,0.1,0.5,0.1,0.7,0.1c0.4,0,0.8-0.1,1.2-0.2c0.4-0.1,0.7-0.4,1-0.6c0.3-0.3,0.5-0.6,0.6-0.9c0.2-0.4,0.2-0.7,0.2-1.2
					c0-0.2,0-0.3-0.1-0.5c0-0.2-0.1-0.3-0.2-0.4c-0.1-0.1-0.2-0.2-0.3-0.3c-0.1-0.1-0.2-0.2-0.3-0.2c0.3-0.1,0.5-0.2,0.7-0.4
					c0.2-0.1,0.4-0.3,0.5-0.5c0.1-0.2,0.2-0.4,0.3-0.6s0.1-0.4,0.1-0.6c0-0.3-0.1-0.6-0.2-0.8c-0.1-0.2-0.3-0.4-0.5-0.6
					c-0.2-0.2-0.4-0.3-0.7-0.4c-0.3-0.1-0.6-0.1-0.9-0.1c-0.4,0-0.7,0-1,0.1c-0.3,0.1-0.6,0.2-0.8,0.4c-0.2,0.2-0.4,0.4-0.6,0.7
					c-0.2,0.3-0.3,0.5-0.3,0.9l1.1,0c0,0,0-0.1,0-0.1c0,0,0,0,0,0c0,0,0,0,0,0c0,0,0,0,0,0c0-0.1,0.1-0.3,0.2-0.4
					c0.1-0.1,0.2-0.2,0.3-0.3c0.1-0.1,0.3-0.2,0.4-0.2c0.2-0.1,0.4-0.1,0.6-0.1c0.2,0,0.3,0,0.5,0.1c0.1,0.1,0.3,0.1,0.4,0.3
					c0.1,0.1,0.2,0.2,0.2,0.4c0.1,0.1,0.1,0.3,0.1,0.4c0,0.2,0,0.4-0.1,0.5c-0.1,0.2-0.2,0.3-0.4,0.5c-0.2,0.1-0.4,0.2-0.6,0.3
					c-0.2,0.1-0.5,0.1-0.7,0.1h-0.4l-0.2,0.9h0.5c0.2,0,0.3,0,0.5,0.1c0.1,0.1,0.3,0.1,0.4,0.2c0.1,0.1,0.2,0.2,0.3,0.4
					c0.1,0.1,0.1,0.3,0.1,0.5c0,0.3,0,0.5-0.1,0.7c-0.1,0.2-0.2,0.4-0.4,0.6c-0.2,0.2-0.4,0.3-0.6,0.4c-0.2,0.1-0.5,0.1-0.7,0.1
					c-0.2,0-0.4,0-0.5-0.1c-0.2-0.1-0.3-0.2-0.4-0.3c-0.1-0.1-0.2-0.2-0.3-0.4s-0.1-0.3-0.1-0.5h-1.1
					C28.2,739.3,28.2,739.4,28.3,739.5z"/>
			</g>
		</g>
	</g>
	<circle id="XMLID_86_" class="st22" cx="41.7" cy="801.4" r="25.4"/>
	<g id="XMLID_51_">
		<g id="XMLID_49_">
			<polygon id="XMLID_85_" class="st1" points="41.7,783.8 23.3,791.4 23.3,814.9 41.7,822.5 60.2,814.9 60.2,791.4 			"/>
			<polygon id="XMLID_83_" class="st24" points="23.3,814.9 41.7,822.5 41.7,799 23.3,791.4 			"/>
			<polyline id="XMLID_82_" class="st24" points="41.7,807 41.7,799 60.2,791.4 60.2,814.9 41.7,822.5 41.7,807 			"/>
			<line id="XMLID_35_" class="st24" x1="23.3" y1="791.4" x2="41.7" y2="783.8"/>
			<line id="XMLID_34_" class="st24" x1="41.7" y1="783.8" x2="60.2" y2="791.4"/>
			<polyline id="XMLID_33_" class="st24" points="36,786.2 54.4,793.8 54.4,801.4 50,803.3 			"/>
			<polyline id="XMLID_32_" class="st30" points="50,803.3 50,795.7 31.5,788.1 			"/>
		</g>
		<g id="XMLID_48_">
			<circle id="XMLID_31_" class="st32" cx="24.2" cy="815.6" r="14.2"/>
			<g id="XMLID_87_">
				<path id="XMLID_115_" d="M17.2,820.5l0.9-3.9h1l2.6,3.9h1.8l0.3-1.4h-1l-2.1-3l3.2-2.7h0.9l0.3-1.4h-2.8l-0.3,1.3l-2.8,2.4h-0.9
					l1.9-8H17l-0.3,1.4h1.5l-2.6,11.5H17.2z"/>
				<path id="XMLID_117_" d="M25.1,823.7c0.3,0.2,0.6,0.3,0.9,0.4c0.3,0.1,0.6,0.2,1,0.2c0.3,0.1,0.6,0.1,0.9,0.1
					c0.7,0,1.3-0.1,1.8-0.2c0.5-0.1,1-0.4,1.4-0.7c0.4-0.3,0.7-0.7,1-1.2c0.3-0.5,0.5-1.1,0.7-1.8l2-8.5H33l-0.1,0.4
					c-0.2-0.2-0.5-0.4-0.9-0.5c-0.4-0.1-0.8-0.2-1.2-0.2c-0.7,0-1.4,0.1-2.1,0.4c-0.6,0.3-1.2,0.6-1.7,1.1c-0.5,0.5-0.9,1.1-1.2,1.7
					c-0.3,0.7-0.4,1.4-0.4,2.2c0,0.5,0.1,1,0.3,1.4c0.2,0.4,0.4,0.8,0.7,1.1c0.3,0.3,0.7,0.6,1.1,0.7c0.4,0.2,0.9,0.3,1.3,0.3
					c0.4,0,0.8-0.1,1.2-0.2c0.4-0.1,0.7-0.3,1.1-0.5c-0.1,0.7-0.3,1.2-0.5,1.5c-0.2,0.4-0.4,0.7-0.7,0.9c-0.3,0.2-0.5,0.4-0.9,0.4
					c-0.3,0.1-0.7,0.1-1.1,0.1c-0.3,0-0.5,0-0.8-0.1c-0.3-0.1-0.5-0.1-0.7-0.2c-0.2-0.1-0.4-0.2-0.6-0.3c-0.2-0.1-0.3-0.3-0.5-0.4
					l-1.1,1.2C24.5,823.4,24.8,823.6,25.1,823.7z M27.5,815.3c0.2-0.5,0.5-0.9,0.8-1.2s0.7-0.6,1.1-0.8c0.4-0.2,0.8-0.3,1.3-0.3
					c0.5,0,0.9,0.1,1.2,0.2c0.3,0.1,0.5,0.3,0.7,0.5l-1.1,4.6c-0.3,0.3-0.7,0.5-1,0.6c-0.4,0.2-0.8,0.2-1.2,0.2
					c-0.3,0-0.6-0.1-0.8-0.2c-0.3-0.1-0.5-0.3-0.6-0.4c-0.2-0.2-0.3-0.4-0.4-0.7c-0.1-0.3-0.1-0.6-0.1-1
					C27.2,816.3,27.3,815.8,27.5,815.3z"/>
			</g>
		</g>
	</g>
	<g id="XMLID_29_">
		<circle id="XMLID_175_" class="st22" cx="41.8" cy="578" r="25.4"/>
		<g id="XMLID_30_">
			<path id="XMLID_52_" class="st1" d="M26.8,580.5c-2-0.4-4,0.8-4.5,2.8l-2.1,6.4l19,0l-2.1-6.4c-0.4-1.9-2.2-3.1-4-2.9L26.8,580.5
				z"/>
			<path id="XMLID_105_" class="st30" d="M26.8,580.5c-2-0.4-4,0.8-4.5,2.8l-2.1,6.4l19,0l-2.1-6.4c-0.4-1.9-2.2-3.1-4-2.9"/>
			<g id="XMLID_88_">
				<circle id="XMLID_94_" class="st25" cx="20.3" cy="573.5" r="3.5"/>
				<circle id="XMLID_93_" class="st25" cx="39.3" cy="573.5" r="3.5"/>
				<path id="XMLID_92_" class="st25" d="M27.2,579.6c-3.6-1-6.2-4.1-6.2-7.7c0-4.5,3.9-8.1,8.8-8.1s8.8,3.6,8.8,8.1
					c0,3.5-2.4,6.5-5.9,7.6c-0.9,0.3-1.9,0.5-2.9,0.5C28.9,579.9,28.1,579.8,27.2,579.6z"/>
				<path id="XMLID_90_" class="st24" d="M21.3,571c0.2,0,0.4,0,0.6,0c3.6,0,6.7-4.1,7.9-6.7c1.2,2.5,4.3,6.7,7.9,6.7
					c0.2,0,0.4,0,0.6,0"/>
			</g>
			<g id="XMLID_109_">
				<path id="XMLID_113_" d="M51.8,587.8l0.3-1.4h1.1l2.3-9.8h-1.3l0.3-1.4h3.5l3.4,10.5l2.1-9h-1.2l0.3-1.4h4.1l-0.3,1.4h-1.1
					l-2.6,11.3h-2.2l-3.5-10.5l-2.1,9.1h1.3l-0.3,1.4H51.8z"/>
			</g>
			<g id="XMLID_108_">
				<line id="XMLID_107_" class="st30" x1="49.8" y1="578.2" x2="43.6" y2="584.4"/>
				<line id="XMLID_47_" class="st30" x1="43.6" y1="578.2" x2="49.8" y2="584.4"/>
			</g>
		</g>
	</g>
</g>
</svg>
