<?xml version="1.0" encoding="utf-8"?>
<!-- Generator: Adobe Illustrator 19.0.0, SVG Export Plug-In . SVG Version: 6.00 Build 0)  -->
<svg version="1.1" id="Layer_1" xmlns="http://www.w3.org/2000/svg" xmlns:xlink="http://www.w3.org/1999/xlink" x="0px" y="0px"
	 width="48px" height="43px" viewBox="0 0 48 43" enable-background="new 0 0 48 43" xml:space="preserve">
<pattern  x="-456" y="-258.5" width="3.998" height="1" patternUnits="userSpaceOnUse" id="New_Pattern_Swatch_1" viewBox="0 -1 3.998 1" overflow="visible">
	<g id="XMLID_14_">
		<polygon id="XMLID_17_" fill="none" points="0,0 3.998,0 3.998,-1 0,-1 		"/>
		<polygon id="XMLID_16_" points="1,0 0,0 0,-1 1,-1 		"/>
		<polygon id="XMLID_15_" fill="#FFFFFF" points="3.998,0 1,0 1,-1 3.998,-1 		"/>
	</g>
</pattern>
<g id="XMLID_46_">
	<path id="XMLID_2_" fill="#FFFFFF" d="M0.066-5"/>
	<g id="XMLID_3_">
		<polygon id="XMLID_4_" opacity="0.25" points="32,1.861 16,1.861 0,1.861 0,34.692 8,43 16,34.692 24,43 32,34.692 40,43 
			48,34.692 48,1.861 		"/>
		<polygon id="XMLID_1_" fill="#2A8FA3" points="32,-0.123 16,-0.123 0,-0.123 0,32.708 8,41.016 16,32.708 24,41.016 32,32.708 
			40,41.016 48,32.708 48,-0.123 		"/>
		<polygon id="XMLID_6_" opacity="0.1" fill="url(#New_Pattern_Swatch_1)" points="32,-0.123 16,-0.123 0,-0.123 0,32.708 8,41.016 
			16,32.708 24,41.016 32,32.708 40,41.016 48,32.708 48,-0.123 		"/>
	</g>
</g>
<g id="XMLID_22_">
</g>
<g id="XMLID_23_">
</g>
<g id="XMLID_24_">
</g>
<g id="XMLID_26_">
</g>
<g id="XMLID_27_">
</g>
<g id="XMLID_28_">
</g>
<g id="XMLID_47_">
</g>
<g id="XMLID_48_">
</g>
<g id="XMLID_52_">
</g>
<g id="XMLID_56_">
</g>
<g id="XMLID_57_">
</g>
<g id="XMLID_58_">
</g>
<g id="XMLID_59_">
</g>
<g id="XMLID_60_">
</g>
<g id="XMLID_61_">
</g>
</svg>
